<?xml version="1.0" encoding="utf-8"?>
<!-- Generator: Adobe Illustrator 23.1.0, SVG Export Plug-In . SVG Version: 6.00 Build 0)  -->
<svg version="1.1" id="Layer_1" xmlns="http://www.w3.org/2000/svg" xmlns:xlink="http://www.w3.org/1999/xlink" x="0px" y="0px"
	 viewBox="0 0 286 413" style="enable-background:new 0 0 286 413;" xml:space="preserve">
<g>
	<path d="M23.2,296.46c0.95-0.46,1.9-0.91,3.14-1.5c-1.06,2.81-0.9,3.11,1.38,4.06c0.66,0.27,1.2,0.83,1.8,1.27
		c-0.66,0.93-1.16,1.65-1.97,2.8c1.02,0.04,1.59,0,2.13,0.11c0.7,0.15,1.88,0.31,1.96,0.66c0.43,1.92,2.02,1.72,3.31,2.2
		c1.18,0.44,3.13,0.66,1.62,2.82c-0.1,0.14,0.62,1.05,1.11,1.35c0.71,0.44,1.56,0.66,2.56,1.05c-0.65,0.82-1.03,1.3-1.63,2.06
		c0.85,0.31,1.52,0.51,2.16,0.81c1,0.47,2.41,0.59,1.92,2.37c-0.08,0.3,0.51,0.92,0.92,1.2c0.6,0.41,1.32,0.65,2.09,1.02
		c-0.87,0.51-1.56,0.92-2.72,1.6c0.97,0.39,1.49,0.65,2.03,0.81c0.5,0.15,1.03,0.22,1.67,0.35c-1.63,1.53-3.08,2.89-4.28,4.01
		c-0.32-1.02-0.66-2.08-0.99-3.14c-0.28-0.02-0.56-0.04-0.84-0.06c-0.45,0.68-0.91,1.37-1.6,2.41c-0.38-1.48-0.63-2.43-0.94-3.64
		c-1.14,0.92-2.05,1.65-3.13,2.52c-0.4-1.6-0.75-3.02-1.09-4.37c-0.4,0-0.6-0.06-0.67,0.01c-2.05,2.12-3.69,1.76-5.17-1.13
		c-0.38-0.75-0.79-1.5-1.07-2.29c-0.25-0.71-0.35-1.48-0.51-2.21c-2.55,0.48-3.6-0.95-2.91-3.51c0.23-0.85,0.17-2.13-0.33-2.75
		c-0.96-1.17-2.33-2.01-3.63-3.07c-0.38,0.8-0.85,1.77-1.31,2.74c-2.28-0.96-3-2.85-1.71-4.57c1.26-1.68-0.6-2.2-1.22-3.02
		c-0.41-0.54-1.81-0.98-2.27-0.69c-1.06,0.68-1.07,1.76-0.13,2.86c1.33,1.55-0.36,2.3-1.12,3.41c-1.54-0.72-2.8-1.44-2.42-3.57
		c0.13-0.72-0.55-1.59-0.8-2.26c-3,1.43-5.77,2.75-8.54,4.08c0-2.26,0-4.51,0-6.77c0.76,0.79,1.45,1.67,2.31,2.34
		c0.44,0.34,1.18,0.31,1.78,0.45c0.04-0.55,0.28-1.2,0.08-1.64c-0.57-1.26,0.44-5.31,1.68-5.81c0.4-0.16,1.18-0.03,1.44,0.27
		c0.33,0.38,0.55,1.16,0.39,1.6c-0.32,0.83-1.01,1.51-1.41,2.32c-0.21,0.42-0.15,0.98-0.21,1.47c0.45,0.01,1.02,0.2,1.34,0
		c1.53-0.99,3.02-2.06,4.47-3.16c0.29-0.22,0.61-0.82,0.5-1.02c-0.19-0.35-0.69-0.55-1.09-0.75c-1.27-0.62-2.55-1.22-3.82-1.82
		c0.01-0.25,0.03-0.5,0.04-0.75c1.43-0.68,2.85-1.37,4.63-2.21c-1.05-0.82-1.99-1.48-2.85-2.24c-0.96-0.85-2.28-1.59-1.27-3.29
		c0.13-0.21-0.41-0.87-0.7-1.27c-0.47-0.64-0.99-1.24-1.72-2.15c1.09-0.18,1.73-0.29,2.79-0.46c-1.92-1.4-3.58-2.61-5.67-4.14
		c1.1-0.38,1.65-0.56,2.21-0.77c0.45-0.17,0.89-0.36,1.34-0.54c-0.31-0.34-0.6-0.7-0.94-1c-1.4-1.19-2.82-2.36-4.23-3.54
		c0.08-0.17,0.15-0.34,0.23-0.51c0.72-0.04,1.45-0.05,2.17-0.13c0.51-0.05,1-0.19,1.5-0.29c-0.27-0.51-0.43-1.12-0.83-1.49
		c-0.8-0.76-1.73-1.39-2.69-2.14c0.81-0.51,1.57-0.98,2.52-1.58c-1.38-1.19-2.52-2.17-3.97-3.42c1.47-0.76,2.43-1.25,3.66-1.89
		c-1.02-1.13-1.88-2.08-2.74-3.03c1.48-0.86,2.03-2.6,1.84-6.22c0.93,1.56,1.72,2.83,2.45,4.14c0.85,1.5,1.72,3,2.45,4.57
		c0.37,0.8,0.39,1.76,0.71,2.59c0.17,0.45,0.63,0.79,1.22,0.88c0.84,2.34,1.73,4.66,2.5,7.02c0.54,1.67,0.92,3.39,1.36,5.02
		c0.57-0.35,1.46-0.89,2.74-1.66c0.43,2.34,0.79,4.3,1.17,6.39c0.17-0.06,0.72-0.23,1.67-0.54c0.31,2.1,0.6,4.13,0.97,6.6
		c0.74-3.68,4.3-1.83,6.26-3.63c-1.77-1.18-3.33-2.21-4.89-3.25c-0.04-0.25-0.08-0.5-0.13-0.75c0.62-0.3,1.24-0.59,1.89-0.9
		c-1.28-1.75-4.3-2.23-2.63-5c-1.35-1.5-3.49-2.48-2.72-5.04c0.06-0.21-0.3-0.65-0.57-0.82c-1.86-1.19-1.8-2.64-0.5-4.35
		c-1.14-0.65-2.52-1.03-3.13-1.93c-0.57-0.84-0.31-2.24-0.46-3.85c-1.37-0.56-3.53-1.11-4.07-3.85c1.1,0,2.12,0.1,3.11-0.04
		c0.58-0.08,1.1-0.55,1.65-0.85c-0.55-0.35-1.06-0.83-1.66-1.01c-0.92-0.27-1.95-0.2-2.86-0.51c-0.84-0.28-1.58-0.87-2.36-1.32
		c0.23-0.27,0.47-0.54,0.7-0.81c1.27-0.33,2.54-0.65,4.31-1.1c-1.75-1.18-2.92-1.97-4.42-2.98c1.44-0.4,2.43-0.68,3.79-1.06
		c-0.63-0.72-0.94-1.14-1.32-1.48c-0.33-0.3-0.75-0.52-1.42-0.97c2.17,0.34,2.64-0.16,2.39-1.83c-0.23-1.58-0.32-3.18-0.21-4.8
		c-0.21,1.98,2.42,3.19,1.18,5.66c-0.45,0.89,0.84,2.69,1.44,4.03c0.07,0.14,1.15,0.11,1.32-0.14c0.41-0.6,0.55-1.38,0.98-2.62
		c0.55,1.35,0.97,2.4,1.39,3.45c0.08-0.08,0.16-0.17,0.23-0.25c0.55,0.7,1.23,1.33,1.62,2.11c0.79,1.6,1.52,3.25,2.08,4.94
		c0.37,1.1,0.4,2.31,0.59,3.49c2.36,0.33,2.38,0.39,2.42,5.13c2.13,0.37,2.13,0.37,2.69,5.29c0.59-0.19,1.13-0.36,2.04-0.65
		c0.3,2.2,0.59,4.35,0.88,6.46c0.74-0.19,1.8-0.45,2.84-0.72c0.93,2.57,0.84,4.88-1.01,6.81c2.08,0,3.99,0.06,5.88-0.04
		c0.51-0.03,1.01-0.5,1.51-0.76c-0.4-0.31-0.78-0.68-1.22-0.91c-0.36-0.19-0.8-0.22-1.75-0.46c1.28-0.52,2.13-0.87,3.12-1.28
		c-1.45-2.27-5.77-2.55-4.24-6.67c-1.2-0.98-3.58-1.74-1.12-4.12c-1.06-0.61-2-1.16-2.95-1.7c0.22-0.27,0.43-0.55,0.65-0.82
		c0.37-0.11,0.86-0.11,1.09-0.35c0.29-0.3,0.49-0.81,0.49-1.23c0-0.18-0.63-0.52-0.95-0.5c-2.06,0.13-2.95-0.92-3.04-2.91
		c0.78-0.51,1.61-1.04,2.85-1.86c-2.3-1.04-4.14-1.88-5.98-2.71c0.05-0.26,0.1-0.51,0.15-0.77c0.68-0.25,1.4-0.44,2.04-0.78
		c0.57-0.3,1.05-0.75,1.57-1.14c-0.63-0.33-1.25-0.93-1.88-0.93c-1.94-0.01-3.62-0.33-4.62-2.5c1.32-0.42,2.62-0.83,4.15-1.31
		c-1.59-2.31-5.14-0.35-6.3-3.42c1.19-0.34,2.35-0.68,3.61-1.04c-0.21-2.54-3.05-1.21-4.04-2.9c0.87-0.49,2.03-0.79,2.5-1.52
		c0.33-0.51-0.27-1.63-0.46-2.46c1.3-0.05,3.02,0.56,3.03-1.86c-0.03,2.86,0.16,5.65,2.71,8.03c0.66-0.59,1.27-1.13,2.08-1.85
		c-0.29-0.18,0.01-0.1,0.13,0.1c0.77,1.29,1.42,3.67,2.25,3.72c2.39,0.16,1.87,2.2,2.71,3.24c0.97,1.2,1.32,2.88,2.07,4.28
		c0.36,0.67,1.22,1.12,1.47,1.8c0.75,2.04,1.32,4.14,2.01,6.39c0.39-0.19,1.05-0.51,1.71-0.83c0.69,1.82,0.69,1.82,0.03,6.72
		c1.03-0.42,1.93-0.8,3.32-1.37c0.39,2.32,0.74,4.44,1.12,6.74c0.58,0.07,1.77,0.28,2.96,0.31c0.77,0.02,2.19-0.19,2.2-0.38
		c0.08-1.07,0.1-2.32-0.4-3.21c-0.51-0.92-1.72-1.43-2.47-2.25c-0.71-0.77-1.92-1.29-1.36-2.89c0.16-0.45-1.1-1.32-1.52-2.09
		c-0.5-0.91-0.8-1.93-1.32-3.24c-0.27-1.02-0.37-2.39-0.98-3.48c-0.7-1.23-1.85-2.2-2.94-3.44c1.24-0.63,2.32-1.19,3.53-1.81
		c-0.39-0.64-0.69-1.15-1-1.66c-2.87,0.85-4.06,0.38-5.28-2.09c0.82-0.28,1.63-0.55,2.45-0.83c0.02-0.22,0.03-0.44,0.05-0.66
		c-2.6-0.18-5.44,0.13-6.94-2.97c0.79-0.22,1.51-0.37,2.18-0.65c0.38-0.16,0.66-0.54,0.98-0.83c-0.37-0.25-0.72-0.68-1.11-0.72
		c-1.03-0.11-2.12,0.11-3.11-0.11c-0.73-0.17-1.35-0.83-2.44-1.55c1.08-0.45,1.71-0.67,2.3-0.97c0.56-0.28,1.08-0.64,1.61-0.96
		c-0.56-0.28-1.09-0.64-1.68-0.82c-0.84-0.26-1.73-0.38-2.99-0.64c1.18-0.88,2.04-1.51,2.89-2.14c-0.42-2.08-0.81-4-1.27-6.24
		c0.22-0.18,0.89-0.74,1.69-1.4c0.26,1.12,0.5,2.15,0.85,3.62c0.67-0.83,1.05-1.3,1.75-2.17c0.4,2.05,0.74,3.77,1.08,5.49
		c0.17,0.06,0.35,0.12,0.52,0.17c0.32-0.88,0.64-1.76,1.05-2.91c0.73,1.24,1.47,2.49,2.29,3.87c0.42-0.36,0.75-0.65,1.54-1.33
		c0.77,1.95,1.45,3.68,2.19,5.53c0.44-0.24,0.96-0.52,1.89-1.03c0.66,1.61,1.3,3.16,2,4.87c0.28-0.12,0.74-0.33,1.21-0.54
		c2.32,1.63,1.5,4.21,1.76,6.72c0.95-0.5,1.66-0.87,2.43-1.27c0.31,0.75,0.74,1.43,0.86,2.16c0.25,1.48-0.28,3.21,2.06,3.69
		c0.44,0.09,0.54,1.88,0.79,2.88c0.17,0.71,0.3,1.43,0.56,2.11c0.02,0.06,1.13-0.07,1.21-0.3c0.24-0.64,0.23-1.38,0.27-2.08
		c0.01-0.26-0.12-0.54-0.3-1.23c1.46,0.39,2.66,0.74,3.89,1.01c0.39,0.08,0.84-0.07,1.26-0.12c-0.22-0.37-0.35-0.9-0.67-1.08
		c-0.79-0.44-1.7-0.66-2.51-1.08c-1.2-0.62-2.37-1.29-1.7-3.04c0.12-0.31-0.14-1.04-0.42-1.18c-1.95-1-1.7-2.14-0.22-3.35
		c-1.23-1.13-2.38-2.19-3.8-3.51c0.9-0.41,1.31-0.5,1.6-0.74c0.34-0.29,0.57-0.71,0.85-1.08c-0.37-0.26-0.71-0.65-1.12-0.76
		c-1.55-0.4-2.98-0.89-3.42-2.65c0.79-0.59,1.55-1.15,2.3-1.7c-1.81-0.9-3.33-1.66-5.25-2.62c1.42-1.02,2.29-1.64,3.2-2.3
		c-1.3-2.19-4.74-0.41-5.52-3.55c0.76,0,1.45,0.11,2.09-0.04c0.49-0.11,1.1-0.46,1.29-0.87c0.14-0.3-0.28-0.89-0.5-1.33
		c-0.08-0.16-0.44-0.22-0.47-0.36c-0.3-1.69-0.57-3.4-0.89-5.41c0.88,0.52,1.52,0.89,2.45,1.44c0-1.14,0-2.09,0-3.03
		c0.09-0.01,0.18-0.03,0.27-0.04c0.19,1.03,0.39,2.05,0.62,3.29c0.75-0.41,1.33-0.72,2.23-1.22c0.22,1.06,0.43,2.01,0.63,2.97
		c1.74-0.37,2.4,0.44,3.11,3.94c2.59,0.01,3.43,2.2,3.52,4.84c2.51-0.4,3.26,1.12,3.19,6.86c0.88-0.69,1.61-1.27,2.35-1.85
		c1.57,2.13,1.66,2.77,0.99,6.64c1.69-0.01,4.04-1.61,4.17-3.04c0.05-0.53-0.48-1.2-0.9-1.67c-1.39-1.56-1.47-1.76-0.85-3.44
		c-1.1-0.82-2.28-1.55-3.26-2.48c-0.48-0.46-0.57-1.31-0.91-1.95c-0.21-0.39-0.5-0.78-0.85-1.04c-1.01-0.74-2.07-1.41-3.33-2.25
		c0.85-0.66,1.47-1.15,2.31-1.81c-1.97-0.92-3.8-1.76-6.08-2.82c1.34-0.78,2.05-1.2,3.26-1.9c-1.83-0.85-3.37-1.56-5.5-2.55
		c1.13-0.63,1.72-0.91,2.24-1.28c0.46-0.32,0.85-0.74,1.27-1.12c-0.5-0.3-0.96-0.66-1.49-0.88c-0.94-0.39-1.92-0.7-3.22-1.16
		c1.2-0.59,2.09-1.02,2.98-1.45c-0.22-0.08-0.43-0.17-0.65-0.25c0.29-2.11,0.58-4.23,0.87-6.34c0.18,0.02,0.37,0.04,0.55,0.06
		c-0.05,0.95-0.11,1.9-0.16,2.86c0.27,0.06,0.54,0.12,0.81,0.19c0.25-0.85,0.49-1.7,0.86-2.95c0.53,1.55,1,2.9,1.52,4.42
		c0.4-0.31,0.9-0.7,1.69-1.32c0.44,1.66,0.85,3.17,1.31,4.9c0.56-0.38,1.1-0.75,1.56-1.06c1.55,1.97,3.22,3.89,4.62,5.98
		c0.62,0.93,0.69,2.22,1.01,3.35c3.5,0.07,3.49,2.93,3.98,5.51c0.8-0.51,1.37-0.88,2.05-1.32c1.87,1.91,1.88,4.18,1.05,7.05
		c1.35-0.69,2.18-1.11,3.42-1.75c0.26,2.3,0.49,4.39,0.75,6.74c0.96-0.24,2.13-0.54,3.31-0.83c-0.57,3.06-2.23,6.26,1.31,8.76
		c0.48,0.34,0.48,1.28,0.87,1.82c0.31,0.42,1.18,1,1.29,0.9c0.67-0.56,1.65-1.29,1.65-1.98c0.01-0.96-0.49-2.4-1.22-2.8
		c-3-1.65-3.29-2.37-0.97-5.19c-0.96-0.56-1.91-1.12-2.86-1.68c-0.51-2.23-0.38-4.74-2.75-6.15c-0.28-0.17-0.69-0.65-0.63-0.78
		c0.94-1.95-1.01-2.45-1.74-3.54c-0.26-0.39-0.62-0.73-1.01-1.2c0.59-0.41,1.07-0.74,1.61-1.12c-1.5-1.13-2.91-2.19-4.67-3.52
		c1.43-0.56,2.28-0.88,3.13-1.21c0.02-0.19,0.04-0.38,0.07-0.57c-2.14-0.68-4.91-0.22-6-3.09c0.9-0.5,1.82-1.02,3.18-1.79
		c-2.11-0.76-3.81-1.36-5.94-2.12c1.32-0.92,2.19-1.53,3.58-2.49c-2.15-0.94-3.91-1.7-6.06-2.64c1.69-0.78,3.01-1.38,4.33-1.99
		c0.01-0.22,0.03-0.44,0.04-0.65c-1.17-0.62-2.33-1.23-3.65-1.93c0.37-0.14,0.73-0.42,1.02-0.36c1.56,0.34,1.94-0.32,1.6-1.72
		c-0.09-0.38-0.19-0.81-0.1-1.17c0.31-1.27,0.7-2.53,1.05-3.79c1.43,1.33,1,3.34,0.58,5.35c0.23,0.03,0.46,0.07,0.69,0.1
		c0.42-1.01,0.83-2.03,1.25-3.04c0.2-0.02,0.4-0.04,0.59-0.06c0.4,1.32,0.81,2.64,1.26,4.14c0.3-0.17,0.72-0.41,1.52-0.86
		c0.52,1.17,1,2.34,1.56,3.47c0.27,0.55,0.57,1.2,1.04,1.52c1.95,1.3,3.21,2.9,2.62,5.49c2.71-1.04,4.04,0.84,3.57,4.92
		c0.8-0.47,1.48-0.86,2.57-1.49c0.67,2.07,1.29,4,1.96,6.08c0.49-0.34,1.15-0.79,1.81-1.25c0.11,0.47,0.11,1.01,0.35,1.39
		c1.25,1.9,1.13,3.83,0.3,5.82c-0.2,0.48-0.31,1-0.52,1.67c1.49-0.71,2.76-1.31,4.1-1.94c0.18,0.85,0.31,1.44,0.45,2.13
		c1.14,0,2.19-0.03,3.23,0.01c1.01,0.04,2.03,0.19,3.04,0.24c0.39,0.02,0.79-0.09,1.18-0.15c-0.33-0.37-0.59-0.94-1-1.08
		c-1.16-0.39-2.4-0.55-3.58-0.88c-3-0.84-3.86-2.15-2.83-4.53c-1.43-1.06-2.9-2.15-4.37-3.24c1.41-0.52,2.83-1.04,4.65-1.72
		c-1.45-0.56-2.7-0.7-3.34-1.41c-0.44-0.49-0.01-1.75,0.05-3.05c-2.25-0.85-5.9-0.13-7.27-3.76c1.93-0.53,3.79-1.03,5.63-1.58
		c0.18-0.05,0.25-0.44,0.46-0.84c-2.57-0.65-5.49,0.38-7.61-2.06c0.9-0.66,1.71-1.25,2.58-1.89c-2.5-1.27-4.85-2.46-7.2-3.65
		c0.07-0.2,0.15-0.41,0.22-0.61c1.01-0.31,2.02-0.62,3.48-1.07c-2.14-1.03-3.92-1.89-6.14-2.96c1.35-0.83,2.05-1.25,2.95-1.81
		c-1.56-1.15-2.99-2.21-4.53-3.36c3.03-1.54,3.02-1.53,0.58-3.32c-0.38-0.28-0.65-0.7-0.66-0.7c0.53-0.89,1.42-1.79,1.23-2.21
		c-0.32-0.73-1.31-1.16-2.22-1.87c2.73-1.46,0.32-3.29,0.53-4.97c0.15-1.25-0.5-2.6-0.73-3.91c-0.15-0.83-0.19-1.68-0.31-2.84
		c2.01,3.19,3.89,6.19,5.91,9.39c2.23-0.34,0.45,2.06,1.27,2.87c2.04-0.72,2.3-0.38,2.97,4.07c0.58-0.2,1.13-0.38,2.1-0.71
		c0.42,1.69,0.84,3.35,1.3,5.2c0.39-0.33,0.82-0.69,1.75-1.47c0.55,2.09,1.03,3.93,1.56,5.96c0.48-0.31,1.15-0.74,2.16-1.38
		c0.49,1.47,0.94,2.87,1.43,4.26c0.13,0.36,0.3,0.81,0.59,1c2.61,1.72,3.07,2.94,2.08,6.27c0.94-0.46,1.7-0.84,2.83-1.39
		c0.61,2.01,1.22,3.99,1.83,6.02c0.44-0.2,1.18-0.54,1.8-0.83c2.24,1.54,2.63,3.6,1.64,6.25c1.26-0.3,2.17-0.51,3.62-0.85
		c0.19,2.05,0.36,4.04,0.57,6.31c2.49-0.41,2.51,2.11,2.98,3.5c1.99-0.55,3.67-0.97,5.31-1.5c0.43-0.14,0.81-0.56,1.11-0.94
		c1.37-1.72,3.25-1.48,5.05-1.21c0.4,0.06,0.93,0.98,0.95,1.51c0.03,0.88-0.31,1.76-0.55,2.9c2.74-0.65,5.51-1.6,6.94,1.64
		c1.63,0.33,3.24,0.66,4.99,1.01c-0.41,1.05-0.7,1.81-0.89,2.31c2.08,0.56,4.09,1.1,6.28,1.69c-0.61,1.08-0.96,1.71-1.24,2.22
		c1.96,0.46,3.78,0.88,5.84,1.36c-0.48,1.11-0.77,1.77-1.07,2.46c1.28,0.28,2.5,0.32,3.49,0.83c0.71,0.36,1.1,1.33,1.4,2.27
		c1.25,0.81,3.36,0.37,3.85,2.66c0.04,0.19,0.91,0.14,1.35,0.33c0.4,0.17,1.07,0.57,1.03,0.77c-0.43,2.39,1.25,1.28,1.97,1.35
		c-0.31,1.14-0.63,2.3-0.99,3.61c-0.41-0.44-0.88-0.92-1.6-1.69c-0.52,1.26-0.95,2.28-1.54,3.7c-0.82-1.59-1.52-2.94-2.22-4.28
		c-0.22,0.06-0.44,0.12-0.65,0.18c-0.18,1.06-0.37,2.12-0.56,3.23c-2.17,0.19-2.15-1.86-3.06-2.96c-1.33,0.22-0.76,3.23-2.73,1.97
		c-0.94-0.6-1.41-1.93-2.22-3.11c-0.46,0.7-0.82,1.24-1.21,1.83c-3.09-0.99-3.15-3.91-3.96-6.76c-0.81,1.14-1.36,1.91-2.41,3.38
		c-0.9-1.12-1.66-2.07-2.48-3.09c-2.12,0.73-3,0.12-4.44-3.31c-2.75,0.96-3.75,0.6-4.97-2.09c-0.44-0.98-0.73-1.39-1.98-1.06
		c-1.54,0.41-2.68-0.47-3.18-2.05c-0.29-0.9-0.61-1.79-1.13-3.28c-0.52,1.16-0.79,1.74-1.06,2.33c-2.36-1.83-2.72-2.86-1.57-5.46
		c-1.67,0.09-3.18-1.24-4.68,0.43c-0.37,0.41-0.83,0.87-1.33,1c-2.12,0.56-3.13,1.28-1.84,3.75c0.6,1.15,0.68,1.24,1.8,0.85
		c1.46-0.51,3.05-0.66,5.06-1.06c-0.31,1.87-0.56,3.46-0.77,4.71c2.02,0.27,4.06,0.54,6.2,0.82c-0.25,1.05-0.46,1.9-0.73,3.05
		c2.52-0.82,4.76-1.07,6.5,1.26c-0.5,0.74-1.03,1.52-1.85,2.73c3.28-0.66,5.23,0.78,7.13,2.81c0.86,0.92,2.58,1.05,4.08,1.6
		c-0.61,0.96-1.04,1.63-1.46,2.29c2.06,0.58,4.02,1.14,6.34,1.8c-0.84,1.15-1.26,1.72-1.73,2.36c4.58,0.46,4.58,0.46,6.01,1.95
		c-0.32,0.43-0.66,0.89-1.03,1.39c1.65,0.4,3.18,0.78,4.71,1.16c0.06,0.23,0.12,0.46,0.18,0.68c-0.64,0.38-1.27,0.76-1.91,1.15
		c0.06,0.19,0.11,0.38,0.17,0.58c1.07,0.24,2.14,0.49,3.47,0.79c-0.99,1.4-0.54,1.78,0.76,2.64c2.42,1.6,4.34,3.95,6.26,6.35
		c-1.79-0.47-3.56-1.14-5.38-1.36c-1.53-0.18-3.03-0.02-3.73-2.19c-0.43,0.98-0.68,1.57-1.15,2.64c-0.85-1.43-1.53-2.58-2.33-3.94
		c-0.44,0.74-0.81,1.38-1.44,2.44c-1.02-1.1-1.95-2.1-3.25-3.51c-0.32,0.54-0.66,1.13-1.16,1.99c-1.25-1.31-2.32-2.43-3.43-3.6
		c-0.38,0.52-0.79,1.08-1.21,1.65c-2.54-0.21-2.63-2.59-3.77-4.36c-0.45,0.64-0.77,1.11-1.1,1.57c-3.1-1.5-3.62-4.38-3.36-7.68
		c-0.22,0.06-0.43,0.12-0.65,0.19c-0.41,0.61-0.82,1.21-1.23,1.82c-2.52-1.91-2.88-3.87-1.38-7.16c-0.14-0.12-0.29-0.24-0.43-0.37
		c-0.45,0.59-0.88,1.2-1.36,1.76c-0.68,0.79-0.53,2.64-2.39,1.96c-1.58-0.58-2.69-2.44-2.42-3.98c0.06-0.34,0.12-0.68,0.17-1.03
		c0.01-0.06-0.04-0.13-0.09-0.25c-1.19,0-2.43,0-3.4,0c0.06-1.03,0.38-1.9,0.07-2.36c-0.52-0.78-1.3-0.99-2.31-0.22
		c-1.43,1.09-3.27-0.31-3.66-2.54c-0.16-0.9-0.57-1.76-0.91-2.74c-0.82,1.59-1.45,2.8-2.02,3.92c-3.17-0.92-4.55-2.67-3.99-5.76
		c-2.08,1.08-3.87,2.02-5.9,3.07c-0.26-0.15-0.79-0.45-1.35-0.77c-0.16,0.21-0.38,0.37-0.38,0.53c0.01,0.33,0.13,0.66,0.22,0.99
		c0.23,0.89,0.47,1.77,0.71,2.66c0.71-0.57,1.39-1.18,2.14-1.68c0.3-0.2,0.8-0.28,1.14-0.18c1.25,0.36,2.47,0.82,3.86,1.29
		c0.07,1.05,0.13,2.15,0.22,3.6c2.4-1.84,4.69-1.1,6.93,0.27c-0.12,0.73-0.24,1.46-0.33,2.01c2.25,0.5,4.36,0.97,6.79,1.51
		c-0.63,1.07-0.96,1.63-1.17,1.98c3.34,2.02,6.6,3.99,9.94,6.01c-0.59,0.78-1.12,1.48-1.64,2.17c2.59-0.65,4.57-0.01,6.12,2.04
		c-0.58,0.75-1.11,1.43-1.63,2.11c2.07,0.67,3.92,1.28,5.92,1.93c-0.58,1.05-0.96,1.74-1.32,2.4c1.47,0.56,2.77,1.05,4.28,1.63
		c-0.82,1.02-1.35,1.7-1.99,2.49c1.42,0.41,2.61,0.76,3.96,1.15c-0.14,0.56-0.25,1.05-0.33,1.35c3.03,2.7,5.95,5.3,9.25,8.25
		c-4.68,0.34-7.98-1.98-11.65-3.04c0.02-0.19,0.04-0.39,0.06-0.58c-0.42,0.31-0.85,0.63-1.49,1.11c-0.69-1.02-1.37-2.03-2.15-3.19
		c-0.49,0.71-0.97,1.4-1.65,2.37c-0.87-1.34-1.61-2.47-2.43-3.72c-0.34,0.44-0.66,0.85-0.97,1.25c-2.47-1.32-2.48-1.33-3.07-6.53
		c-0.45,0.91-0.67,1.42-0.94,1.91c-0.27,0.48-0.57,0.94-0.89,1.45c-3.17-2-3.49-4.85-2.13-8.4c-1.26,0.53-1.92,0.81-3.15,1.33
		c0-1.33,0.04-2.31-0.01-3.29c-0.04-0.68-0.2-1.35-0.31-2.03c-0.39,0.62-0.86,1.2-1.13,1.87c-0.34,0.81-0.51,1.69-0.76,2.54
		c-0.22,0.1-0.43,0.2-0.65,0.3c-1.2-1.41-2.39-2.82-3.94-4.65c-1.56-0.41-4.34-0.12-4.61-3.42c-2.67-0.07-4.46-1.2-5.08-4.06
		c-0.65,0.72-1.06,1.18-1.43,1.59c-4.02-0.2-3.16-3.95-4.63-6.71c-0.64,1.55-1.08,2.63-1.59,3.87c-1.12-0.45-1.31-3.05-3-1.66
		c-0.11,1.94-0.21,3.69-0.32,5.51c2.19-1.61,4.57-1,6.96,0.13c-0.12,0.44-0.28,1.06-0.39,1.48c2.2,0.23,4.29,0.46,6.63,0.71
		c-0.42,1.15-0.74,2.02-0.93,2.53c2.45,0.87,4.77,1.69,7.35,2.61c-0.82,0.95-1.22,1.41-1.83,2.11c2.77,0.46,5.63,0.56,6.04,4.14
		c1.83,0.59,3.66,1.05,4.44,3.59c0.35,1.14,2.59,1.7,3.99,2.53c-0.4,0.75-0.68,1.27-1,1.88c1.53,0.65,2.96,1.25,4.44,1.87
		c-0.46,0.79-0.76,1.31-1.12,1.93c1.28,0.62,2.45,1.19,3.58,1.74c-0.42,0.52-0.74,0.91-1.06,1.3c0.39,0.22,0.76,0.51,1.17,0.66
		c0.81,0.29,1.49,0.35,1.56,1.66c0.04,0.67,1.59,1.28,2.49,1.88c0.74,0.49,1.52,0.93,2.29,1.39c-0.04,0.18-0.08,0.36-0.12,0.54
		c-1.7-0.18-3.4-0.31-5.09-0.56c-1.39-0.2-2.77-0.54-4.15-0.81c0.01-0.21,0.02-0.43,0.03-0.64c-0.46,0.29-0.92,0.57-1.58,0.99
		c-0.58-0.86-1.15-1.7-1.84-2.73c-0.61,0.79-1.17,1.54-1.91,2.5c-0.83-1.07-1.61-2.09-2.53-3.27c-0.43,0.47-0.82,0.9-1.25,1.37
		c-1.97,0.14-3.35-2.53-3.07-6.37c-0.64,0.37-1.15,0.67-2.19,1.27c-0.39-2.18-0.73-4.13-1.08-6.1c-0.86,0.07-1.06,0.38-1.33,2.26
		c-0.16,1.13-0.43,2.25-0.66,3.48c-3.1-1.06-3.76-3.57-4.73-6.28c-0.65,1.18-1.1,2-1.57,2.85c-3.08-1.1-3.42-3.85-4.02-6.6
		c-3.57,2.86-2.77-1.54-4.23-2.53c-0.25,0.39-0.41,0.66-0.6,0.91c-0.45,0.59-0.92,1.16-1.38,1.74c-0.54-0.48-1.12-0.92-1.6-1.45
		c-0.75-0.81-1.43-1.68-2.2-2.6c-0.45,0.16-0.96,0.34-0.87,0.31c-1.35-0.51-2.2-0.84-3.06-1.16c-0.35-1.3-0.85-2.58-1.03-3.91
		c-0.44-3.15-0.38-3.16-1.43-3.63c0,0.54,0.17,1.1-0.03,1.43c-0.65,1.09-1.54,3.04-2.15,2.97c-2.97-0.33-1.6,1.78-2.05,2.48
		c2.37,0.21,4.56,0.41,6.75,0.61c-0.54,1.08-1.07,2.16-1.53,3.08c2.45,0.76,4.55,1.41,6.8,2.11c-0.75,1.15-1.2,1.83-1.59,2.43
		c2.12,0.72,4.13,1.4,6.35,2.16c-0.82,1.15-1.31,1.84-1.72,2.41c2.16,0.91,4.12,1.73,6.23,2.62c-0.84,1.15-1.31,1.79-1.64,2.25
		c2.08,0.56,4.06,1.1,6.22,1.68c-0.56,1.24-0.86,1.89-1.01,2.23c1.81,0.94,3.46,1.79,5.22,2.71c-0.66,0.87-1.05,1.39-1.47,1.94
		c1.62,0.9,3.11,1.73,4.72,2.62c-2.63,2.59,1.14,2.38,1.24,4.03c-0.13,0.19-0.43,0.62-0.85,1.25c0.84,0.46,1.61,0.89,2.37,1.32
		c-0.1,0.07-0.19,0.13-0.29,0.2c0.36,0.62,0.63,1.3,1.08,1.83c1.37,1.65,2.81,3.24,4.1,5c-3.41-0.91-6.86-1.53-10.19-3.8
		c-0.01,0.02-0.2,0.45-0.6,1.38c-0.89-1.47-1.54-2.54-2.45-4.04c-0.35,0.57-0.74,1.21-1.34,2.19c-0.88-1.33-1.57-2.38-2.35-3.56
		c-0.35,0.28-0.81,0.63-1.6,1.25c-0.91-1.6-1.77-3.11-2.7-4.73c-0.23,0.39-0.48,0.82-0.73,1.25c-1.09,0.33-2.95-2.09-3.67-4.78
		c-2.59,1.19-2.69,1.11-4.89-4.16c-0.64,0.83-1.21,1.56-1.86,2.4c-2.31-1.37-3.21-3.48-3.17-6.67c-1.01,1.07-1.63,1.74-2.71,2.89
		c-0.95-1.93-1.8-3.65-2.76-5.61c-0.34,0.42-0.77,0.95-1.28,1.58c-2.12-0.88-3.66-2.24-3.49-4.94c0.02-0.36-0.41-0.75-0.64-1.12
		c-0.33,0.3-0.68,0.57-0.98,0.9c-0.43,0.48-0.87,0.96-1.22,1.5c-0.36,0.56-0.84,1.19-0.82,1.78c0.01,0.34,0.88,0.71,1.41,0.96
		c1.52,0.71,3.06,1.37,4.96,2.21c-1.41,1.06-2.26,1.7-3.29,2.47c2.15,1.09,4.11,2.09,6.01,3.05c-0.2,0.63-0.2,0.82-0.28,0.87
		c-2.8,1.63-2.79,1.61-0.27,3.65c0.59,0.47,1.09,1.06,1.83,1.78c-1.01,0.62-1.91,1.17-3.2,1.96c2.26,1.08,4.21,2.02,6.49,3.12
		c-1.39,0.7-2.46,1.23-3.97,1.99c1.85,1.18,3.51,2.23,5.61,3.57c-1.42,0.6-2.47,1.04-3.58,1.5c0.76,2.25,4.3,0.23,4.4,3.12
		c-2.97,1.4-2.97,1.4-0.36,3.57c0.27,0.22,0.53,0.45,0.8,0.67c-2.64,3.41,0.71,6.28,0.72,9.42c-3.88-1.16-7.43-2.78-9.56-6.74
		c-0.68,0.54-1.24,0.99-1.92,1.53c-0.63-0.88-1.23-1.71-1.92-2.67c-0.53,0.47-0.97,0.85-1.65,1.44c-0.98-1.39-1.91-2.71-2.91-4.13
		c-1,1.3-1.92,2.57,0.21,3.92c-0.47,0.39-0.83,0.69-1.32,1.09c1.08,0.75,2.09,1.45,3.1,2.16c-0.16,0.09-0.33,0.17-0.49,0.26
		c0.31,0.9,0.63,1.8,0.92,2.71c0.29,0.9,0.79,1.81,0.79,2.72c0.01,1.37-0.96,2.01-2.11,1.18c-1.61-1.16-3.02-2.61-4.83-4.22
		c-0.1,0.07-0.69,0.48-1.51,1.05c-0.59-1.14-1.18-2.27-2.1-4.04c-0.55,1.07-0.97,1.87-1.53,2.95c-0.84-2.39-1.44-4.12-2.24-6.41
		c-1.01,1.31-1.51,1.96-2.37,3.08c-1.2-1.08-2.36-2.13-3.59-3.23c-0.28,0.48-0.62,1.07-1.02,1.76c-2.68-0.34-3.16-2.57-3.88-4.81
		c-0.72,0.55-1.3,0.99-1.88,1.43c-0.17,0.17-0.34,0.34-0.51,0.51c-0.55-0.78-1.11-1.54-1.65-2.33c-0.76-1.13-0.22-3.52-2.89-2.88
		c-0.22,0.05-0.86-1.29-1.18-2.04c-0.19-0.44-0.13-0.99-0.25-2.07c-1,1.17-1.61,1.88-2.17,2.55c-2.29-3.42-4.57-6.81-6.51-9.7
		c-1.73-1.01-3.03-1.86-4.42-2.54c-1.13-0.56-1.85-1.37-2.38-2.48c-0.14-0.29-0.77-0.35-1.18-0.52c-0.13,0.34-0.31,0.66-0.4,1.01
		c-0.18,0.72-0.31,1.45-0.35,1.62c1.33,1.92,2.45,3.54,3.57,5.16c-1.47,1.03-2.94,2.05-4.42,3.08c0.09,0.2,0.18,0.39,0.28,0.59
		c0.75-0.25,1.52-0.46,2.24-0.77c0.79-0.34,1.54-0.78,2.4-1.22C23.58,297.63,23.39,297.04,23.2,296.46z M49.07,279.67
		c1.81,0.97,3.41,1.83,5,2.68c-0.2,0.58-0.39,1.12-0.42,1.2c2.24,0.88,4.26,1.67,6.27,2.45c-0.45,0.91-0.7,1.42-0.82,1.67
		c1.86,0.83,3.52,1.57,5.06,2.26c-0.56,1.07-0.91,1.74-1.11,2.12c1.53,0.92,2.78,1.61,3.97,2.39c0.93,0.61,4.24-0.5,4.41-1.61
		c0.05-0.32-0.49-0.99-0.84-1.05c-0.47-0.08-1.02,0.38-1.54,0.41c-0.68,0.03-1.5,0.07-2.01-0.27c-0.52-0.34-1.15-1.26-1.02-1.72
		c0.46-1.65-0.31-2.49-1.55-3.26c-0.7-0.43-1.51-0.89-1.9-1.56c-1.57-2.68-4.26-3.86-6.83-5.09c-1.27-0.61-2.11-1.14-2.23-2.57
		c-0.11-1.4-0.48-2.65-1.96-3.29c-0.31-0.13-0.6-0.68-0.62-1.04c-0.13-2.34-1.52-1.52-2.64-1.03c-0.91,0.4-1.75,0.99-2.56,1.59
		c-0.37,0.27-0.56,0.78-0.87,1.22c1.76,0.37,3.22,0.68,4.67,0.99C49.37,277.49,49.21,278.66,49.07,279.67z M41.51,292.79
		c1.93,0.98,3.7,1.88,5.69,2.9c-1.01,0.74-1.57,1.15-2.23,1.64c2.23,1.13,4.16,2.1,6.09,3.08c0.12-0.07,0.23-0.14,0.35-0.22
		c-0.91-1.53-1.81-3.06-2.72-4.59c-1.22-1.47-3.28-2.25-3.45-4.74c-0.02-0.3-0.73-0.57-1.13-0.84c-0.99-0.66-2.8-1.25-2.85-1.96
		c-0.19-2.84-2.99-3.76-3.92-5.98c-0.18-0.44-1.46-0.52-2.23-0.55c-0.3-0.01-0.95,0.69-0.89,0.87c0.22,0.64,0.62,1.27,1.09,1.77
		c0.36,0.38,0.93,0.57,1.56,0.93c-0.26,1.29-0.53,2.62-0.8,3.94C41.03,290.54,42.22,291.32,41.51,292.79z M60.57,247.48
		c-0.18,0.63-0.68,1.41-0.47,1.85c0.9,1.87-0.11,3.22-0.95,4.67c-0.25,0.43-0.4,0.92-0.4,0.93c1.82,1.13,3.43,1.95,4.82,3.05
		c1.38,1.09,2.55,2.47,3.81,3.72c0.25-0.15,0.51-0.3,0.76-0.45c-0.52-1.67-1-3.35-1.61-4.99c-0.14-0.38-0.69-0.62-1.07-0.89
		c-0.68-0.49-1.43-0.89-2.05-1.44c-1.35-1.21-1.21-2.23,0.33-3.1c0.33-0.19,0.65-0.38,1.16-0.67
		C63.46,249.25,62.2,248.48,60.57,247.48z M56.13,262.87c-0.25,0.03-0.5,0.05-0.75,0.08c-0.57,1.53-1.26,3.03-1.66,4.6
		c-0.35,1.36,0.8,1.47,1.54,1.04c2.3-1.35,4.6-2.15,7.75-0.39c-0.49-1.36-0.6-2.04-0.95-2.55c-1.74-2.55-3.53,0.21-5.07,0.21
		C56.66,264.71,56.39,263.79,56.13,262.87z M78.47,302.66c-1,0.21-1.67,0.21-2.18,0.49c-0.35,0.2-0.78,0.95-0.66,1.17
		c1.27,2.33,2.65,4.61,4.25,7.35c0.44-0.99,1.17-1.83,1-2.42C80.23,306.99,79.29,304.81,78.47,302.66z M79.99,240.38
		c-1.22-1.16-1.95-1.72-2.49-2.42c-0.55-0.71-0.91-1.56-1.35-2.36c-0.4,0.25-0.8,0.5-1.21,0.75c0.05,0.95-0.11,1.98,0.21,2.81
		c0.45,1.16-1.11,3.16,0.78,3.37C77.12,242.67,78.47,241.24,79.99,240.38z M67.69,263.13c-0.35-0.04-0.71-0.09-1.06-0.13
		c-0.24,1.25-0.27,2.59-0.77,3.72c-0.53,1.2-1.68,3.19-2.27,3.1c-1.94-0.31-1.57,0.86-1.97,1.96c1.85-0.21,3.47-0.39,5.32-0.6
		C66.95,268.54,67.91,265.87,67.69,263.13z M46.82,272.2c-1.24-1-1.93-0.91-3.19-0.36c-1.91,0.83-2.15,2.6-3.2,3.89
		c-0.2,0.24-0.09,0.73-0.12,1.1c0.42,0.01,0.98,0.2,1.22-0.01C43.3,275.36,44.99,273.82,46.82,272.2z M71.54,238.53
		c1.36-0.98,2.85-1.49,3.27-2.46c0.84-1.93,0.35-3.9-1.75-5.56C72.59,233.02,72.14,235.36,71.54,238.53z M19.47,289.52
		c-0.12-0.13-0.3-0.44-0.56-0.57c-1.06-0.55-4.15,1.16-4.22,2.34c-0.02,0.3,0.16,0.73,0.39,0.89
		C16,292.78,19.45,290.82,19.47,289.52z M98.2,221.73c0.17,0.13,0.35,0.25,0.52,0.38c1.42-0.24,2.85-0.42,4.25-0.76
		c0.24-0.06,0.32-0.79,0.47-1.21c-1.25-0.19-2.54-0.64-3.73-0.46C99.12,219.77,98.7,221.01,98.2,221.73z M72.64,296.07
		c-0.88,1.23-1.43,1.99-1.97,2.75c0.16,0.19,0.31,0.37,0.47,0.56c1.12-0.19,2.23-0.37,3.35-0.56
		C73.98,298.07,73.47,297.31,72.64,296.07z M72.76,255.44c1.34,0.21,2.35,0.47,3.36,0.47c0.28,0,0.55-0.8,0.83-1.23
		c-1.06-0.38-2.12-0.75-3.28-1.16C73.38,254.12,73.15,254.61,72.76,255.44z M69.47,252.13c-0.53,2.81-0.53,2.81,0.62,3.64
		C71.44,254.04,71.34,253.34,69.47,252.13z M103.94,225.13c2.79-0.87,2.01-1.75,0-4C103.94,222.62,103.94,223.75,103.94,225.13z
		 M33.53,281c-0.08-0.39-0.17-0.78-0.25-1.17c-0.91,0.24-1.84,0.43-2.7,0.77c-0.1,0.04,0.15,0.93,0.23,1.43
		C31.71,281.68,32.62,281.34,33.53,281z M74.35,251.94c-0.11-0.23-0.21-0.45-0.32-0.68c-0.73,0.18-1.66,0.15-2.13,0.6
		c-0.36,0.34-0.12,1.29-0.18,2.57C72.91,253.3,73.63,252.62,74.35,251.94z M79.5,244.87c-0.2-0.05-0.4-0.11-0.61-0.16
		c-0.42,1.17-0.85,2.35-1.4,3.89C80.12,247.82,80.04,246.43,79.5,244.87z M87.29,242.15c-0.24-0.37-0.49-0.74-0.73-1.11
		c-0.64,0.18-1.51,0.16-1.88,0.58c-0.42,0.48-0.4,1.34-0.57,2.04c0.35,0.24,0.7,0.47,1.05,0.71
		C85.87,243.62,86.58,242.88,87.29,242.15z"/>
	<path d="M0,340.04c0.28,0.02,0.68-0.08,0.81,0.07c2.03,2.26,3.53,4.73,2.37,8.16c1.02-0.2,1.65-0.33,2.79-0.56
		c-0.6,1.55-1.07,2.77-1.6,4.15c0.76,0.1,1.34,0.18,2.26,0.3c-0.94,1.64-1.82,3.15-2.79,4.84c0.9,0.25,1.54,0.43,2.79,0.78
		c-0.93,1.07-1.69,1.93-2.43,2.8c-0.28,0.33-0.52,0.7-0.78,1.05c0.41,0.18,0.8,0.46,1.23,0.52c0.74,0.12,1.51,0.1,2.38,0.15
		c0.01,2.27-2.47,2.42-3.24,3.6c1.09,0.63,2,1.16,2.91,1.69c-0.72,0.87-1.44,1.74-2.42,2.94c1.44,0.28,2.66,0.53,3.9,0.77
		c-1.05,2.84-2.45,3.25-5.78,1.7c-0.87-0.41-1.61-1.1-2.41-1.66C0,360.9,0,350.47,0,340.04z"/>
	<path d="M0,388.66c1.95,1.73,2.5,1.69,6.26-0.21c-0.65,0.61-1.37,1.16-1.92,1.84c-0.29,0.36-0.29,0.97-0.42,1.46
		c0.44,0.06,0.91,0.24,1.33,0.17c2.89-0.52,2.89-0.54,4.26,0.47c-0.66,0.83-1.34,1.67-2.24,2.79c2.18,0.4,3.79,0.7,5.41,1
		c-0.12,0.13-0.24,0.26-0.36,0.38c0.51,0.62,0.93,1.37,1.56,1.82c1.79,1.25,2.34,3.26,3.22,5.04c0.7,1.41,1.24,2.9,1.94,4.55
		c-2.22-0.71-4.52-1.44-6.96-2.21c-0.35-0.6-0.8-1.38-1.43-2.48c-0.82,0.75-1.48,1.36-2.47,2.27c-0.46-1.78-0.9-3.47-1.34-5.16
		c-0.15-0.18-0.29-0.37-0.44-0.55c-0.4,0.79-0.8,1.58-1.2,2.36c-0.27-0.06-0.54-0.12-0.81-0.18c-0.33-1.73-0.66-3.46-1.05-5.5
		c-0.83,0.55-1.44,0.96-2.3,1.53c0-1.23,0.14-2.31-0.04-3.35c-0.18-1.05-0.67-2.05-1.02-3.08C0,390.64,0,389.65,0,388.66z"/>
	<path d="M0,281.26c0.45-0.17,0.89-0.34,1.22-0.47c1.56,2.03,1.47,4.03-0.46,6.42c1.87-0.12,3.19-0.2,4.5-0.29
		c0.32,3.08-0.15,3.74-2.62,5.32c-1.07,0.69-1.78,1.96-2.65,2.96C0,290.56,0,285.91,0,281.26z"/>
	<path d="M0,384.43c1.33,0.09,2.66,0.18,4.52,0.31c-1.83,1.42-3.17,2.46-4.52,3.5C0,386.97,0,385.7,0,384.43z"/>
	<path d="M0,378.51c0.67,0.4,1.33,0.8,2,1.2c-0.67,0.73-1.33,1.46-2,2.18C0,380.77,0,379.64,0,378.51z"/>
	<path d="M242.32,58.43c1.23-1.93-0.94-3.04-1.17-4.66c-0.33-2.26-1-4.45,0.15-6.77c0.24,0.21,0.42,0.32,0.53,0.48
		c1.41,1.97,2.84,3.93,4.21,5.94c0.42,0.62,0.58,1.44,1.02,2.04c0.26,0.36,0.86,0.47,1.3,0.69c0.12-0.41,0.42-0.88,0.32-1.23
		c-0.5-1.63-0.95-3.31-1.72-4.82c-1.32-2.6-1.84-5.08,0.22-7.95c1.73,2.57,3.38,5.02,5.02,7.47c0.2-0.11,0.4-0.22,0.6-0.33
		c-0.38-3.75-3.63-7.11-1.52-11.87c1.19,1.65,2.12,2.95,3.05,4.25c0.91,1.28,1.8,2.56,2.71,3.84c0.2-0.07,0.4-0.15,0.6-0.22
		c-0.18-0.61-0.3-1.24-0.54-1.81c-0.84-1.98-1.99-3.88-2.51-5.94c-0.34-1.33,0.21-2.89,0.35-4.34c0.32-0.07,0.64-0.14,0.96-0.21
		c1.52,2.39,3.04,4.79,4.55,7.18c0.2-0.07,0.4-0.15,0.6-0.22c-0.05-3.64-4.92-6.55-1.73-10.86c1.21,1.53,2.4,3.04,3.59,4.55
		c0.21-0.11,0.42-0.22,0.63-0.33c-0.19-2.65-3.26-5.13-0.38-8.28c1.12,1.84,2.18,3.61,3.25,5.37c0.23-0.06,0.46-0.12,0.69-0.17
		c-0.09-0.7-0.05-1.45-0.31-2.08c-0.4-0.97-1.29-1.8-1.46-2.78c-0.25-1.42-0.05-2.93-0.05-4.4c0.21,0,0.42,0,0.63,0
		c1.1,1.5,2.21,2.99,3.29,4.46c0.93-1.05,0.95-1.09-0.05-3.06c-0.92-1.81-1.66-3.6-0.2-5.65c0.98,1.61,1.9,3.14,2.88,4.77
		c0.98-0.8,1-1.7,0.47-2.97c-0.57-1.37-0.85-2.88-1.11-4.35c-0.07-0.42,0.35-0.93,0.77-1.94c0.69,2.29,1.21,4,1.8,5.96
		c1.43-1.53,1.61-2.84,0.88-4.56c-0.57-1.34-0.61-2.91-0.88-4.38c0.22-0.05,0.44-0.09,0.66-0.14c0.52,1.37,1.03,2.75,1.61,4.27
		c1.53-1.17,1.3-2.3,0.77-3.66c-0.58-1.48-0.86-3.07-0.9-4.78c1.66,2.5,1.58,6.49,6.17,6.38c-1.11,0.41-2.29,0.69-3.3,1.28
		c-0.77,0.45-1.32,1.29-1.97,1.95c0.99,0.28,1.97,0.59,2.96,0.83c0.21,0.05,0.47-0.15,0.86,0.18c-1.15,0.4-2.33,0.73-3.43,1.23
		c-0.63,0.29-1.11,0.88-1.66,1.34c0.57,0.29,1.13,0.63,1.73,0.86c0.52,0.2,1.08,0.26,1.82,0.91c-1.37,0.53-2.78,0.99-4.1,1.62
		c-0.6,0.28-1.05,0.89-1.56,1.35c0.59,0.26,1.16,0.6,1.78,0.76c0.67,0.17,1.39,0.16,2.09,0.23c0.04,0.22,0.09,0.45,0.13,0.67
		c-2.2,0.89-4.4,1.78-6.61,2.67c-0.05,0.19-0.1,0.38-0.16,0.57c0.85,0.29,1.7,0.63,2.56,0.87c0.94,0.27,1.91,0.45,3.2,0.75
		c-2.2,2.72-5.15,1.71-7.43,2.65c-0.06,0.21-0.11,0.41-0.17,0.62c1.88,0.43,3.76,0.87,5.67,1.31c-1.15,2.34-1.15,2.34-8.85,3.63
		c1.71,2.46,5.32,0.43,6.48,3.17c-1.68,3.14-5.47,1.13-8.04,3.05c2.41,0.56,4.61,1.07,6.91,1.6c-2.34,4.52-6.79,2.68-10.46,4.04
		c2.58,1.93,6.01,0.46,7.89,3.14c-4.19,3.32-9.34,2.11-14.01,2.89c0.01,0.26,0.02,0.51,0.04,0.77c1.98,0.37,3.96,0.89,5.96,1.05
		c2.06,0.16,3.98,0.46,5.59,1.95c-1.06,1.85-2.83,2.2-4.62,2.42c-2.83,0.34-5.66,0.6-8.5,0.89c-0.07,0.24-0.14,0.48-0.21,0.72
		c0.52,0.24,1.04,0.65,1.58,0.69c1.99,0.16,4,0.08,5.97,0.33c1.45,0.18,2.86,0.74,4.78,1.27c-4.94,4.96-11.13,2.6-16.46,4.41
		c0.1,0.56,0.21,1.12,0.22,1.19c5.4,1.22,10.73,0.79,15.54,3.01c0.01,0.23,0.02,0.46,0.02,0.69c-1.4,0.5-2.83,0.94-4.21,1.51
		c-3.33,1.36-6.68,0.83-10.08,0.41c-1.7-0.21-3.47,0.09-5.2,0.26c-0.39,0.04-0.9,0.38-1.08,0.73c-0.13,0.27,0.06,0.98,0.31,1.1
		c0.32,0.16,0.83-0.12,1.26-0.13c1.67-0.03,3.64-0.59,4.92,0.12c1.12,0.61,1.84,0.18,2.72,0.32c2.92,0.47,6.01,0.59,8.83,3.04
		c-2.12,0.56-3.79,1.1-5.49,1.44c-2.71,0.55-5.43,1-8.16,1.41c-0.5,0.07-1.07-0.27-1.61-0.43c-0.39-0.12-0.82-0.41-1.17-0.33
		c-2.01,0.42-2,0.45-3.54-0.03c-1.12,0.05-2.27,0.3-3.35,0.12c-1.77-0.3-2.88,0.31-4.12,2.25c2.25-0.63,4.01-1.04,4.63,1.19
		c1.35,0.16,2.98-1.16,3.66,1.02c2.46-0.61,11.78,2.86,14.39,5.8c-2.64,0-4.77-0.05-6.89,0.02c-1.63,0.05-3.27,0.38-4.89,0.31
		c-0.91-0.04-1.79-0.64-2.79-1.02c-1.27,0.88-4.4,0.21-6.55-1.04c-1.04,0-2.31,0.38-3.08-0.08c-1.8-1.06-2.48-0.03-3.59,1.29
		c1.74,0.34,3.8-0.6,3.98,1.81c1.46,0.27,3.26-1.54,3.87,0.98c1.44,0.07,3.23-1.6,3.69,0.55c4.5,0.93,8.81,1.82,13.11,2.7
		c-0.02,0.37-0.04,0.73-0.06,1.1c-2.92,0.41-5.84,0.82-9.1,1.28c-0.03,0.1-0.18,0.67-0.38,1.41c-1.06-0.57-2.08-1.12-3.21-1.73
		c-0.25,0.48-0.5,0.96-0.84,1.64c-0.88-0.78-1.7-1.49-2.52-2.21c-0.05,0.19-0.1,0.38-0.15,0.57c-0.92-0.09-1.84-0.26-2.76-0.25
		c-0.63,0.01-1.26,0.27-2.24,0.5c-0.63-0.42-1.6-1.06-2.72-1.81c-0.54,2.35-2.23,1.79-3.36,1.02c-1.92-1.3-2.74-0.37-3.78,1.3
		c0.92,0.25,1.78,0.31,2.42,0.72c0.55,0.35,0.86,1.09,1.39,1.82c2.59-1.77,4.69,1.36,7.41,0.98c0.1,0.77,0.18,1.36,0.26,1.97
		c3.25-1.46,5.85,0.19,8.59,1.29c1.42,0.57,3.07,0.56,4.47,1.14c1.68,0.7,3.2,1.75,4.79,2.65c-0.11,0.21-0.21,0.42-0.32,0.63
		c-2.9,0-5.8,0-8.91,0c-0.12,0.46-0.29,1.1-0.57,2.19c-1.05-0.77-1.95-1.43-2.99-2.2c-1.97,2.01-3.09-0.02-4.82-1.6
		c-0.36,0.64-0.69,1.24-1.36,2.44c-0.81-1.3-1.41-2.26-2.01-3.22c-0.14,0.28-0.28,0.57-0.43,0.85c-0.91-0.1-1.82-0.16-2.72-0.3
		c-0.32-0.05-0.81-0.46-0.91-0.37c-2.07,1.97-3-0.2-4.21-1.19c-1.87,1.74-2.98,1.55-6.02-1.45c-1,0.96-2,1.93-3.29,3.17
		c2.27,1.16,5.39-0.58,4.6,3.07c1.52,0.6,4-1.31,4.32,1.65c1.31,0,2.58,0,3.83,0c0,0.85,0,1.44,0,2.06
		c3.77-1.07,4.51-0.83,4.69,0.82c2.84,0.73,5.45,1.4,8.32,2.13c-0.97,1.38-0.57,1.8,0.92,1.83c0.74,0.02,1.46,0.72,2.08,1.38
		c2.7,0.14,4.05,2.11,5.33,4.4c-1.75-0.43-3.64-1.48-5.23-1.15c-2.02,0.42-3.16-2.25-5.19-0.97c-0.2,0.12-1.19-1.01-2.02-1.74
		c-0.43,0.59-0.85,1.16-1.53,2.08c-1.02-1.15-2.03-2.28-3.2-3.6c-0.44,0.79-0.82,1.49-1.35,2.45c-0.97-1.22-1.88-2.37-2.95-3.71
		c-0.57,0.8-0.95,1.35-1.53,2.17c-0.89-0.95-1.73-1.84-2.65-2.83c-0.44,0.48-0.8,0.88-1.9,2.07c-0.91-0.94-1.79-1.86-2.68-2.78
		c0.15-0.25,0.3-0.51,0.46-0.76c-0.46,0.56-0.91,1.12-2.11,2.59c-0.86-1.19-1.66-2.28-2.44-3.35c-2.15,2.37-2.42,2.37-4.94-0.51
		c-1.41,1.25-2.81,2.51-4.57,4.07c2.35,0.35,5.16-1.24,5.07,2.42c3.69-0.5,4.79-0.34,4.81,2.08c1.94-0.14,4.11-0.91,5.2,1.67
		c0.08,0.19,0.77,0.09,1.17,0.17c0.73,0.15,1.95,0.15,2.09,0.54c0.69,1.84,2.76,1.23,3.57,2.12c1.48,1.61,4.39,0.55,5.19,3.12
		c0.07,0.24,1.08,0.08,1.55,0.32c0.51,0.26,0.91,0.75,1.31,1.18c0.21,0.23,0.26,0.66,0.5,0.8c2.03,1.15,4.11,2.22,6.14,3.39
		c0.7,0.4,1.28,1,1.75,1.78c-2.65-0.54-5.28-1.14-7.95-1.58c-0.61-0.1-1.31,0.39-2.07,0.65c-0.6-0.84-1.28-1.77-2.15-2.98
		c-0.77,1-1.34,1.74-2.09,2.7c-0.68-1.2-1.36-2.39-2.27-3.99c-0.63,1.11-1.05,1.86-1.7,3c-0.82-1.43-1.56-2.73-2.48-4.36
		c-0.75,1.06-1.32,1.87-2.14,3.02c-0.88-1.44-1.69-2.74-2.58-4.2c-0.62,0.58-1.25,1.17-1.89,1.76c-2.26-3.53-2.26-3.53-4.11-1.05
		c-0.82-1.09-1.58-2.1-2.72-3.62c-0.39,0.71-0.75,1.35-1.25,2.25c-1.04-0.99-1.85-1.76-2.68-2.56c-2.72,1.72-4.33,1.2-5.82-2.07
		c-1.24,1.31-2.45,2.6-3.9,4.14c1.19,0,2.35-0.27,3.28,0.08c0.79,0.3,1.31,1.31,1.95,2.01c-0.13,0.12-0.26,0.24-0.4,0.37
		c1.34,0.23,2.67,0.46,4.19,0.72c-0.14,0.76-0.25,1.31-0.32,1.72c2.03,0.19,3.93,0.37,5.96,0.57c-0.19,0.92-0.3,1.42-0.45,2.12
		c1.04-0.1,1.92-0.32,2.77-0.24c0.88,0.08,1.73,0.43,2.71,0.69c-0.39,1.47-0.22,2.25,1.56,2c0.91-0.13,1.93,0.48,3.11,0.82
		c-0.47,0.77-0.75,1.22-1.15,1.88c0.86,0.09,1.46,0.17,2.06,0.21c1.25,0.07,2.72-0.18,2.46,1.91c-0.02,0.18,0.69,0.59,1.09,0.64
		c0.82,0.1,1.65,0.03,1.91,0.03c0.33,1.56,0.38,3.11,1.05,4.33c0.25,0.46,1.98,0.36,2.93,0.12c1.92-0.5,3.09,0.11,2.89,1.75
		c0.75,1,3.27-0.79,2.97,1.42c2.13,1.36,4.06,2.59,6,3.83c-0.12,0.21-0.24,0.42-0.36,0.64c-1.76-0.85-3.5-1.76-5.29-2.54
		c-1.33-0.57-2.77-0.92-4.11-1.47c-0.39-0.16-0.62-0.67-0.94-1c-1.05-1.1-1.96-1.4-2.45,0.41c-0.77-0.93-1.57-1.88-2.44-2.92
		c-0.71,0.58-1.3,1.05-2.04,1.66c-0.37-0.74-0.62-1.54-1.11-2.15c-0.52-0.64-1.26-1.1-1.9-1.64c-0.4,0.63-0.79,1.27-1.19,1.9
		c-0.11,0.17-0.24,0.33-0.52,0.71c-0.36-0.81-0.73-1.45-0.94-2.14c-0.88-2.93-1.22-3.09-3.75-1.6c-0.84-0.93-1.67-1.85-2.6-2.88
		c-0.95,0.57-1.81,1.09-2.68,1.61c-0.54-0.93-1.14-1.96-1.96-3.38c-0.81,1.16-1.38,1.97-2.24,3.18c-0.83-1.21-1.66-2.42-2.65-3.85
		c-0.53,0.72-0.96,1.31-1.61,2.21c-0.58-0.59-1.21-1.08-1.63-1.71c-0.4-0.6-0.58-1.34-1.05-2.51c-0.77,1.22-1.26,2-2.04,3.25
		c-0.8-0.98-1.49-1.81-2.22-2.71c-2.65,0.92-5.19-0.12-6.23-3.03c-1.77,1.9-3.43,3.67-5.35,5.72c1.52,0.26,2.72,0.15,3.47,0.68
		c0.69,0.49,0.89,1.66,1.32,2.56c1.03,0,2.33-0.28,3.41,0.09c0.81,0.28,1.34,1.38,2.33,2.49c0.73,0.1,2.2,0.29,3.78,0.5
		c-0.43,1.08-0.71,1.76-1.18,2.93c2.72-0.68,5.19-1.6,7.48,0.36c-0.46,0.63-0.85,1.16-1.28,1.74c1.91,0.27,3.72,0.52,5.84,0.81
		c-0.51,1.12-0.78,1.7-1.1,2.4c1.49,0.16,2.82,0.3,4.74,0.5c-0.73,0.79-1.05,1.16-1.4,1.51c-0.33,0.34-0.68,0.65-1.03,0.98
		c0.52-0.03,1.05-0.06,1.57-0.09c1.16-0.07,2.32-0.14,3.48-0.2c0.04,0.22,0.07,0.43,0.11,0.65c-0.81,0.47-1.66,0.88-2.4,1.44
		c-0.36,0.27-0.49,0.83-0.73,1.26c0.5,0.01,1.03,0.14,1.49,0.02c1.48-0.38,2.93-0.84,4.46-0.82c-1.05,1.08-2.09,2.17-3.16,3.26
		c-0.58-0.47-1.33-1.55-2.13-1.59c-0.83-0.04-1.7,0.93-2.35,1.34c-0.3-0.83-0.68-1.88-1.06-2.92c-0.3-0.02-0.61-0.05-0.91-0.07
		c-0.46,1.27-0.92,2.53-1.41,3.88c-1.44-0.05-1.36-1.11-1.21-2.2c0.19-1.4,0.18-2.69-1.72-3.35c-0.37,0.95-0.72,1.87-1.08,2.8
		c-0.16,0.05-0.33,0.09-0.49,0.14c-0.61-1.61-1.21-3.21-2-5.31c-0.96,1.47-1.59,2.43-2.21,3.38c-3.23-0.74-0.32-3.97-2.6-5.5
		c-0.52,1.38-0.97,2.59-1.46,3.9c-2.57-0.15-1.87-2.68-2.76-4.03c-2.68,2.22-2.68,2.22-4.96-0.38c-0.46,0.51-0.91,1.01-1.35,1.51
		c-0.14-0.02-0.34,0.02-0.4-0.06c-1.81-2.56-5.38-1.71-7.44-3.82c-0.61-0.62-1.39-1.08-2.37-1.81c-1.01,1.04-2.18,2.23-3.6,3.68
		c1.32,0.23,2.26,0.39,3.62,0.63c-0.29,1.36-0.56,2.65-0.9,4.28c2.08-1.32,4.2-2.94,6.73-0.9c0,0.52,0,1.17,0,2.05
		c2.34-1.15,4.16-0.61,6.11,0.84c1.11,0.83,2.88,0.78,4.55,1.17c-0.3,0.78-0.5,1.3-0.82,2.13c0.67,0,1.16,0.12,1.55-0.02
		c1.89-0.71,3.35-0.19,4.58,1.34c0.19,0.23,0.66,0.26,1.02,0.32c1.16,0.21,2.32,0.4,3.61,0.62c-0.35,0.66-0.61,1.13-1.07,1.98
		c0.9-0.21,1.41-0.42,1.91-0.41c0.68,0.01,1.88,0.06,1.95,0.33c0.55,2.04,2.42,1.34,3.85,1.99c-0.96,1.74-0.24,2.11,1.54,2.28
		c1.35,0.13,2.64,1.09,3.89,1.81c1.29,0.74,2.49,1.64,4.23,2.81c-1.38-0.24-2.25-0.43-3.13-0.53c-1.5-0.17-3-0.25-4.5-0.44
		c-0.42-0.05-0.95-0.27-1.18-0.59c-1.05-1.41-2-1.45-2.75-0.1c-0.89-0.87-1.77-1.72-2.64-2.57c-0.71,1.07-1.43,2.15-2.32,3.49
		c-0.62-1.3-1.3-2.74-2.24-4.72c-0.73,1.62-1.19,2.65-1.91,4.25c-0.96-1.97-1.72-3.52-2.47-5.06c-0.22-0.05-0.45-0.09-0.67-0.14
		c-0.53,1.07-1.06,2.15-1.81,3.66c-0.95-2.01-1.76-3.72-2.57-5.43c-0.19,0.03-0.38,0.05-0.56,0.08c-0.33,1.13-0.67,2.27-1.14,3.87
		c-1.13-2.27-2.05-4.11-2.97-5.95c-0.22,0.04-0.43,0.08-0.65,0.11c-0.3,1.02-0.6,2.03-0.9,3.04c-3.16,0.72-1.88-3.25-4.07-3.69
		c-0.45,0.98-0.9,1.96-1.67,3.66c-1.27-1.74-2.2-3.01-3.12-4.27c-0.22,0.2-0.36,0.27-0.41,0.38c-0.36,0.75-0.7,1.5-1.05,2.25
		c-1.01-0.79-2.19-1.45-2.97-2.43c-0.61-0.76-0.71-1.92-1.04-2.9c-0.22-0.02-0.43-0.03-0.65-0.05c-0.11,0.5-0.21,1.01-0.34,1.51
		c-0.15,0.56-0.2,1.43-0.55,1.59c-0.56,0.25-1.57,0.29-1.96-0.06c-1.16-1.02-2.11-2.27-3.31-3.62c-1.66,1.54-4.07,2.64-5,5.25
		l0.08-0.04c-0.4-0.05-0.81-0.11-1.21-0.16c0.01-0.49,0.24-1.25,0-1.43c-1.16-0.93-2.43-1.71-3.56-2.47
		c-0.23-3.24,2.82-1.52,4.12-2.66c-2.35-1.57-4.47-2.98-6.98-4.65c1.13-0.45,1.71-0.69,2.72-1.1c-1.45-1.12-2.66-2.06-3.96-3.06
		c0.22-0.34,0.35-0.7,0.59-0.89c1.32-1.02,0.84-1.63-0.36-2.31c-0.88-0.49-1.63-1.22-2.58-1.97c0.7-0.63,1.19-1.06,1.91-1.7
		c-1.66-1.13-3.2-2.17-5.07-3.44c1.25-0.6,2.01-0.96,2.88-1.39c-2.01-1.23-3.86-2.36-6.03-3.68c0.98-0.66,1.58-1.07,2.5-1.7
		c-1.71-1.16-3.32-2.26-5.26-3.58c1.26-0.43,2.11-0.72,3.44-1.17c-2.05-1.2-3.73-2.19-5.41-3.17c0.09-0.2,0.17-0.4,0.26-0.6
		c0.7-0.26,1.4-0.52,2.63-0.97c-1.53-1.23-2.75-2.2-4.45-3.56c1.58-0.37,2.59-0.6,3.86-0.89c-0.97-1.24-1.79-2.27-2.68-3.41
		c0.61-0.44,1.04-0.75,1.05-0.76c-1.03-5.48-2-10.69-2.97-15.89c0.22-0.08,0.43-0.17,0.65-0.25c0.54,0.83,1.18,1.62,1.6,2.51
		c1.1,2.36,2.18,4.74,3.11,7.18c0.28,0.72,0.04,1.63,0.04,2.6c0.64,0.11,1.22,0.21,1.99,0.35c0,1.11,0,2.26,0,3.54
		c0.8-0.09,1.39-0.15,2.31-0.25c-0.21,1.53-0.41,2.95-0.63,4.54c0.49-0.05,1.13-0.13,2-0.23c0,1.33,0,2.69,0,4.02
		c2.48,0.24,2.65,0.5,2.95,4.49c2.73-0.42,3.19,0.79,2.07,5.8c1.03-0.33,1.97-0.64,3.34-1.08c0.27,1.49,0.52,2.84,0.78,4.27
		c2.36,0.23,2.69,0.89,2.65,5.83c0.9,0,2.58-0.08,2.59,0.01c0.16,1.56,0.12,3.15,0.12,4.78c0.39-0.1,1.35-0.34,2.98-0.74
		c-0.35,2.15-0.65,3.97-0.97,5.91c0.96-0.06,2.26-0.52,3.12-0.09c0.78,0.39,1.09,1.74,1.77,2.97c1.15-1.08,2.38-2.22,3.7-3.46
		c-1.62-1.79-4.4-2.5-4.16-5.62c1-0.15,2.02-0.29,3.53-0.52c-1.99-1.67-3.55-2.99-5.43-4.57c1.21-0.18,2.06-0.3,3.6-0.53
		c-2.13-1.38-3.79-2.45-5.87-3.8c1.62-0.43,2.76-0.73,3.89-1.03c0.04-0.18,0.08-0.36,0.12-0.54c-1.76-1.03-3.51-2.05-5.27-3.08
		c0.07-0.2,0.13-0.4,0.2-0.6c0.94-0.27,1.89-0.54,3.41-0.97c-1.84-1.41-3.28-2.51-5.11-3.92c1.39-0.43,2.32-0.72,3.71-1.15
		c-1.71-1.38-3.13-2.51-4.36-3.5c0.51-0.99,0.89-1.72,1.27-2.46c-0.73-0.26-1.49-0.44-2.17-0.79c-0.75-0.39-1.43-0.92-2.33-1.51
		c0.87-0.79,1.47-1.34,2.32-2.11c-1.36-1.06-2.63-2.06-4.06-3.17c1.25-0.58,2.14-1,3.41-1.6c-1.49-1.27-2.63-2.25-3.79-3.23
		c2.22-1.89,2.22-1.89-0.17-4.43c0.44-0.39,0.89-0.77,1.24-1.08c-0.44-1.61-0.85-3.08-1.22-4.45c0.55-0.33,1.14-0.67,1.74-1.03
		c0.74,0.48-0.31,2.36,1.59,2.17c0.14-0.01,0.59,1.45,0.61,2.24c0.02,0.85-0.19,1.56,1.11,1.43c0.13-0.01,0.38,1.45,0.62,2.21
		c0.18,0.55,0.36,1.46,0.7,1.55c1.72,0.42,1.76,1.62,1.59,2.93c-0.15,1.16-0.14,0.96,1.02,1.42c0.57,0.23,0.94,1.24,1.16,1.98
		c0.19,0.64,0.04,1.38,0.04,2.05c2.48,0.52,2.87,1.45,2.54,5.8c1.13,0.22,2.98-1.41,3.27,0.95c0.15,1.28-0.32,2.63-0.53,4.09
		c0.91-0.04,2.47-1.09,2.96,0.82c0.3,1.19,0.32,2.45,0.5,3.94c2.74,0.94,2.91,1.52,0.99,5.51c1.1-0.09,2.1-0.17,3.07-0.25
		c1.33,1.79,0.54,3.22-0.84,4.72c1.77,0.6,4.3-0.53,4.37,3c1.87-2.06,3.32-3.66,4.49-4.95c-1.71-1.59-3.19-2.96-4.96-4.61
		c1.11-0.58,1.61-0.84,2.48-1.29c-1.6-1.11-2.98-2.08-4.69-3.26c1.68-0.31,2.91-0.53,4.14-0.76c0.03-0.19,0.05-0.39,0.08-0.58
		c-1.44-0.68-2.87-1.37-4.7-2.23c1.07-0.56,1.77-0.93,2.95-1.55c-2.04-1.22-3.85-2.32-6.19-3.72c1.68-0.49,2.62-0.76,3.97-1.15
		c-1.7-1.52-3.05-2.72-4.62-4.12c0.94-0.46,1.51-0.73,2.28-1.1c-1.34-1.23-2.53-2.32-3.81-3.49c0.71-0.35,1.41-0.68,2.55-1.24
		c-2.04-1.16-3.73-2.12-5.95-3.38c1.59-0.59,2.56-0.94,3.77-1.39c-1.61-1.32-3.04-2.49-4.88-4c1.39-0.38,2.09-0.58,2.8-0.77
		c0.16-0.19,0.31-0.38,0.47-0.57c-1.26-0.71-2.51-1.42-3.77-2.13c0.21-0.29,0.42-0.57,0.63-0.86c0.79-0.25,1.57-0.51,2.6-0.84
		c-0.95-1.19-1.76-2.2-2.63-3.28c2.86-1.3,0.52-2.49,0.59-3.77c-0.14-1.65-0.32-3.3-0.41-4.96c-0.13-2.33-0.19-4.67-0.26-7.01
		c0-0.1,0.16-0.2,0.59-0.72c0.89,2.84,1.6,5.4,2.53,7.88c0.53,1.43,1.57,2.68,2.09,4.12c0.38,1.05,0.29,2.26,0.42,3.56
		c1.61-0.53,2.21,0.21,2.05,1.82c-0.03,0.33,0.07,0.68,0.18,1c0.56,1.59,1.14,3.18,1.78,4.94c0.16-0.02,0.9-0.13,1.96-0.28
		c0.08,1.53,0.15,2.92,0.22,4.46c2.06,0.71,2.25,1.37,0.97,5.18c0.81-0.24,1.41-0.42,2.53-0.75c0.22,1.82,0.43,3.57,0.65,5.43
		c2.48,0.28,3.08,1.4,1.99,4.53c3.21,1.38,3.35,1.67,2.29,5.28c0.99,0.05,1.9,0.1,3.15,0.17c-0.24,1.45-0.47,2.83-0.71,4.27
		c1.26,0.29,2.67,0.61,4.08,0.93c0.03,0.2,0.06,0.4,0.1,0.6c0.69-0.65,1.39-1.3,2.04-1.91c-1.32-1.77-2.54-3.41-3.94-5.31
		c1.17-0.43,1.92-0.7,3.07-1.12c-1.43-1.08-2.69-2.03-4.15-3.13c0.93-0.45,1.63-0.79,2.66-1.29c-1.74-1.13-3.19-2.07-4.86-3.16
		c1.01-0.6,1.62-0.97,2.45-1.46c-1.07-0.8-1.98-1.43-2.82-2.12c-1.04-0.86-1.31-1.76,0.45-2.56c-1.31-1.02-2.4-1.86-3.84-2.98
		c1.4-0.73,2.17-1.12,3.11-1.61c-1.14-0.8-2.28-1.43-3.18-2.3c-1.14-1.1-0.81-2.15,0.75-2.68c-1.26-1.07-2.3-1.96-3.6-3.06
		c1.1-0.64,1.68-0.97,2.41-1.4c-0.94-1.19-1.86-2.34-2.88-3.62c0.94-0.22,1.57-0.36,2.42-0.55c-0.93-1.28-1.73-2.37-2.68-3.68
		c0.86-0.25,1.4-0.41,1.62-0.48c-0.8-4.83-1.57-9.49-2.34-14.15c0.33-0.12,0.67-0.23,1-0.35c0.77,1.41,1.67,2.76,2.26,4.24
		c0.8,2.01,1.28,4.14,2.06,6.15c0.21,0.55,1.29,0.8,1.47,1.34c0.29,0.9,0.16,1.93,0.21,2.91c2.29,0.77,2.38,0.99,1.53,4.28
		c0.64-0.14,1.18-0.26,1.83-0.4c0.11,0.7,0.28,1.38,0.3,2.07c0.03,0.69-0.09,1.38-0.15,2.07c2.55,0.67,2.99,1.46,2.22,4.19
		c0.57-0.04,1.09-0.08,2.04-0.16c-0.11,1.95-0.21,3.77-0.33,5.79c0.74-0.11,1.53-0.23,2.32-0.34c0.7,1.73,0.7,1.73-0.65,5.16
		c0.45-0.05,0.82-0.06,1.18-0.13c0.33-0.07,0.64-0.2,1.41-0.45c0,1.83,0,3.42,0,5c2.03,0.14,2.37,0.78,1.72,3.86
		c0.93,0.13,1.85,0.26,2.91,0.41c0.15,0.38,0.37,0.93,0.72,1.82c0.84-0.96,1.49-1.71,1.98-2.27c-1.25-1.6-2.33-2.98-3.69-4.71
		c1.42-0.34,2.33-0.55,3.24-0.77c0.08-0.18,0.16-0.35,0.24-0.53c-1.37-0.94-2.74-1.89-4.59-3.17c0.66-0.37,1.18-0.65,1.6-0.89
		c-1.09-0.95-2.11-1.84-3.33-2.9c1.06-0.62,1.56-0.91,2.22-1.3c-1.43-1.08-2.73-2.06-4.23-3.2c0.78-0.5,1.29-0.83,1.91-1.23
		c-1.39-1.12-2.66-2.14-4.2-3.39c1.2-0.45,1.97-0.74,2.87-1.08c-1.53-1.12-2.88-2.12-4.51-3.31c1.16-0.59,1.91-0.96,2.5-1.26
		c-1.22-1.05-2.35-2.03-3.74-3.23c1.48-0.57,2.09-0.8,2.95-1.13c-1-0.94-1.78-1.69-2.68-2.54c0.46-0.53,0.84-0.96,1.2-1.37
		c-0.69-0.92-1.31-1.75-1.99-2.65c0.65-0.36,1.17-0.64,1.45-0.8c-0.5-3.07-0.97-5.92-1.44-8.77c0.22-0.08,0.44-0.15,0.66-0.23
		c1.98,1.06,2.22,3.35,3.34,5.02c0.85,1.26,0.61,3.02,2.22,4.01c0.6,0.37,0.39,2.04,0.57,3.21c2.75,0.29,0.95,2.61,1.49,4.16
		c0.4-0.1,0.82-0.2,1.38-0.33c0.14,0.42,0.32,0.93,0.48,1.44c0.33,1.02-0.19,2.19,1.33,3.04c0.74,0.41,0.46,2.63,0.67,4.22
		c0.39-0.06,1.04-0.15,2.1-0.3c0.19,1.36,0.38,2.71,0.58,4.17c2.27,0.46,2.49,1.11,1.3,5.12c0.8-0.15,1.54-0.29,2.82-0.53
		c0.1,1.46,0.19,2.84,0.29,4.38c0.42,0.03,1.1,0.07,1.78,0.11c0.3,0.65,0.59,1.27,1.03,2.21c0.82-1.01,1.47-1.81,2.14-2.64
		c-2.81-1.92-3.4-3.3-1.98-5.09c-0.94-0.79-1.89-1.58-2.96-2.47c0.46-0.58,0.81-1.03,1.16-1.48c-1.02-0.97-1.96-1.87-2.93-2.79
		c0.52-0.45,0.87-0.75,1.28-1.1c-0.98-0.91-1.88-1.74-2.88-2.66c0.69-0.61,1.18-1.05,1.57-1.4c-0.99-1.18-1.93-2.3-2.95-3.51
		c0.94-0.46,1.47-0.71,2.01-0.97c-0.92-1.24-1.76-2.37-2.62-3.53c0.73-0.44,1.17-0.7,1.58-0.95c-0.86-1.06-1.62-2.01-2.55-3.16
		c1.82-0.38,1.62-1.06,0.93-2.37c-0.46-0.88-0.07-2.27,0.1-3.41c0.28-1.94,0.68-3.86,1.1-6.19c3.17,3.67,2.87,7.87,4.07,11.8
		c0.51-0.09,1.08-0.18,2.22-0.38c-0.29,1.44-0.54,2.71-0.83,4.18c0.53-0.09,1.15-0.19,1.99-0.33c0.07,0.82,0.41,1.74,0.14,2.41
		c-0.64,1.6-0.23,2.25,1.63,2.07c-0.27,1.39-0.5,2.59-0.76,3.98c0.64-0.06,1.16-0.11,1.92-0.18c0,1.23,0,2.44,0,3.66
		c1.99,0.55,2.19,1.1,1.58,4.57c0.7,0,1.39,0,2.06,0c0.3,0.64,0.59,1.25,0.97,2.05c1.32-1.18,2.16-2.11,0.49-3.46
		c-1.36-1.1-1.73-2.37-0.29-3.67c-1.91-2.73-1.91-2.73-1.23-4.11c-0.45-1.1-2.73-1.53-1.1-3.32c-1.13-0.94-2.5-1.46-1.89-3.41
		c0.19-0.62-1.18-1.73-2.13-3.01c0.53-0.21,1.05-0.42,1.61-0.64c-1.03-1.21-1.79-2.11-2.55-3.01c0.15-0.02,0.3-0.04,0.46-0.06
		c0-1.43,0.23-2.9-0.06-4.26c-0.36-1.67-1.15-3.24-1.51-4.98c4.62,2.45,6.15,6.89,7.96,11.56c1.95,0.26,1.14,2.13,1.27,3.57
		c0.17-0.06,0.33-0.13,0.5-0.19c0.38,0.77,0.75,1.55,1.16,2.31c0.34,0.62,0.72,1.22,1.1,1.82c0.15,0.23,0.5,0.47,0.47,0.66
		c-0.43,2.5,2.37,3.18,2.75,5.38c1.27-1.28,0.92-2.26-0.01-3.2c-1-1-1.57-2.03-0.31-3.13c-1.24-1.91-3.46-3.79-3.29-5.43
		c0.22-2.12-1.89-3.15-1.3-5.01c0.06-0.19,0.12-0.54,0.04-0.58c-1.97-1.15-1.3-3.39-1.63-4.96c-0.62-2.96-0.18-6.14,0.15-9.51
		c0.9,1.39,1.97,2.69,2.65,4.18c0.93,2.02,1.42,4.24,2.36,6.25c0.67,1.42,1.91,2.57,2.62,3.98c0.44,0.87,0.35,2.01,0.51,3.06
		c1.27,0.42,1.27,0.42,1.56,3.92c1.77-0.07,1.6-0.07,1.62-1.77c0.04-3.71-2.21-6.5-3.54-9.67c-0.51-1.22-0.76-2.55-1.07-3.85
		c-0.42-1.81-0.85-3.63-1.13-5.47c-0.11-0.71,0.19-1.47,0.37-2.67c2.1,1.93,3.93,3.43,4.58,5.98c0.25,1,1.01,1.85,1.42,2.82
		c0.88,2.08,1.54,4.27,2.56,6.28c0.66,1.31,1.79,2.39,2.76,3.63c1.13-0.99,0.4-2.04-0.14-3.17c-0.46-0.97-0.72-2.03-1.12-3.19
		c-3.62-5.71-5.17-12.02-4.4-18.91c0.19-0.12,0.39-0.25,0.58-0.37c1.12,1.63,2.46,3.15,3.29,4.92c0.97,2.08,1.45,4.39,2.23,6.57
		c0.39,1.09,0.89,2.17,1.54,3.13c0.16,0.24,1.06-0.01,1.62-0.04c-0.33-1.1,0.73-2.3-0.48-3.44c-0.77-0.73-1.07-1.97-1.5-3.01
		c-1.59-3.78-3.35-7.54-2.16-12.35c2.38,2.78,4.51,5.28,6.65,7.78c-0.47,2.22,1.15,5.45,4,7.09c-0.41-1.16-0.62-1.86-0.91-2.52
		c-0.35-0.81-0.67-1.65-1.17-2.36C243.74,59.8,242.99,59.14,242.32,58.43z M217.72,150.42c2.13,1.69,3.34,1.34,3.94-0.88
		C220.21,149.87,218.96,150.15,217.72,150.42z"/>
	<path d="M160.51,309.82c0.43-1.95,0.65-3.98,1.38-5.82c0.43-1.09,1.64-1.87,2.8-3.11c0.78,3.1,2.81,5.23,1.67,8.19
		c-0.19,0.5,0.94,1.5,1.45,2.27c0.25-0.06,0.5-0.11,0.75-0.17c-0.15-1.92-0.23-3.85-0.45-5.76c-0.37-3.2-0.66-6.35,2.45-8.54
		c0.11-0.08,0.25-0.11,0.64-0.27c0,1.26,0.18,2.46-0.04,3.58c-0.4,2.01,0.66,3.46,1.57,4.99c0.2,0.34,0.77,0.47,1.17,0.69
		c0.17-0.47,0.45-0.92,0.49-1.4c0.15-2.08,0.05-4.2,0.37-6.25c0.31-1.99,1.72-3.13,3.94-3.49c-0.43,2.82-2.8,5.8,1.24,8.49
		c0.24-1.18,0.58-2.14,0.6-3.12c0.03-1.54-0.25-3.08-0.22-4.62c0.04-2.52,1.52-4.05,3.89-5.14c0.18,2.85,0.35,5.49,0.53,8.28
		c2.19-0.56,2.26-2.25,2.01-3.92c-0.4-2.73,0.48-4.67,3.17-5.8c-0.09,0.78-0.17,1.5-0.25,2.22c-0.12-0.11-0.23-0.21-0.35-0.32
		c-0.45,0.45-0.91,0.91-1.36,1.36c0.43,0.31,0.9,0.59,1.29,0.95c0.37,0.34,0.66,0.76,1.03,1.2c1.55-0.35,1.7-1.48,1.81-2.85
		c0.13-1.76-0.52-3.96,2.38-4.93c-0.22,1.99-0.41,3.78-0.63,5.8c-1.34,1.14-1.34,1.14,1.63,3.28c-1.75,0.11-3.06,0.11-4.33,0.31
		c-0.88,0.14-1.71,0.55-2.56,0.84c0.24,0.68,0.5,1.36,0.73,2.04c0.07,0.2,0.07,0.42,0.16,0.99c-0.92,0.06-1.85-0.01-2.72,0.2
		c-1.3,0.33-2.7,0.64-3.79,1.37c-1,0.67,0.38,2.5,2.23,3.09c-1.83,0.16-3.67,0.33-5.4,0.49c-0.35,0.78-0.81,1.49-0.97,2.26
		c-0.09,0.42,0.31,1.33,0.54,1.35c1.14,0.08,2.1,1.4,3.48,0.35c0.43-0.33,1.54,0.25,2.33,0.74c-1.7,1.35-3.52,1.72-5.5,1.36
		c-1.38-0.25-2.75-0.58-4.13-0.77c-0.57-0.08-1.18,0.11-1.77,0.17c0.18,0.63,0.18,1.44,0.59,1.85c0.93,0.93,2.07,1.65,3.11,2.46
		c0.47,0.36,0.91,0.75,1.36,1.13c-0.05,0.26-0.1,0.53-0.14,0.79c-1.8,0.02-3.62,0.18-5.41,0.03c-1.45-0.12-2.87-0.64-4.33-0.87
		c-0.48-0.08-1.02,0.2-1.53,0.32c0.19,0.47,0.33,0.97,0.58,1.41c1.26,2.22,3.58,2.82,5.73,3.7c0.72,0.29,1.4,0.66,2.1,0.99
		c-0.03,0.27-0.05,0.54-0.08,0.8c-1.95,0.16-3.92,0.6-5.84,0.41c-2.76-0.28-5.47-1.06-8.22-1.53c-0.59-0.1-1.25,0.19-1.87,0.3
		c0.3,0.48,0.59,0.98,0.91,1.45c1.88,2.7,5.24,2.85,7.72,4.52c0.59,0.39,1.13,0.85,1.69,1.28c-0.05,0.19-0.1,0.38-0.15,0.56
		c-2.78,0-5.58,0.2-8.33-0.06c-2.68-0.25-5.31-1.02-7.97-1.44c-0.75-0.12-1.57,0.16-2.5,0.27c0.78,1.49,1.32,2.51,1.94,3.68
		c1.43-0.28,2.51,0.13,2.81,1.97c0.07,0.4,1.22,0.79,1.9,0.86c0.59,0.06,1.23-0.35,1.87-0.29c-3.7,0.68-7.3,1.64-11.13-0.38
		c-1.65-0.87-4.14-0.15-6.25-0.15c-0.07,0.31-0.15,0.61-0.22,0.92c0.79,0.56,1.58,1.13,2.38,1.7c-0.53,2.1-0.53,2.1,1.37,2.61
		c-0.03,0.59-0.05,1.18-0.08,1.78c0.15-0.15,0.3-0.29,0.44-0.44c1.22,0.91,2.44,1.81,3.65,2.72c-0.12,0.15-0.24,0.29-0.36,0.44
		c-1.97,0-3.95,0.03-5.92-0.03c-0.34-0.01-0.67-0.41-1.01-0.63c-0.69-0.44-1.39-0.87-2.08-1.31c-0.11,0.17-0.22,0.35-0.32,0.52
		c-0.62-0.72-1.15-1.96-1.86-2.08c-2.47-0.4-5.01-0.41-7.68-0.11c2.2,1.03,2.82,3.35,4.79,4.64c2.03,1.33,4.95,2.02,6.01,4.77
		c0.12,0.3,0.87,0.31,1.24,0.57c0.77,0.55,1.49,1.18,2.23,1.77c-0.16,0.28-0.32,0.55-0.48,0.83c-2.2-0.64-4.4-1.28-6.59-1.93
		c-0.32-0.09-0.61-0.28-0.93-0.38c-1.66-0.53-3.44-0.83-4.94-1.65c-1.52-0.83-2.79-2.14-4.12-3.29c-1.11-0.96-7.37-1.66-8.93-0.76
		c2.79,2.27,5.49,4.47,8.08,6.59c-0.23,0.47-0.52,1.03-0.8,1.59c0.62,0.18,1.25,0.37,2,0.59c-0.07,0.54-0.15,1.12-0.24,1.79
		c-4.21-1.83-8.25-3.58-12.78-5.55c-0.93,0.68-2.21-0.03-3.6-1.02c-1.85-1.32-3.68-1.09-5.35,0.4c1.62,0.72,3.23,1.44,4.91,2.19
		c-0.45,0.93-0.72,1.49-1.07,2.22c0.51,0.21,0.92,0.41,1.34,0.55c2.43,0.81,4.15,2.55,5.84,4.37c0.49,0.52,1.22,0.84,1.89,1.16
		c0.94,0.44,2.3,0.34,2.16,1.99c-0.02,0.24,0.34,0.59,0.6,0.78c3.35,2.48,4.01,3.36,5.67,7.69c-4.72-0.6-8.47-3.11-12.35-5.87
		c-0.27,0.67-0.55,1.34-0.87,2.12c-0.23-0.17-0.57-0.28-0.62-0.47c-0.85-3.11-4.61-3.67-5.74-6.53c-0.04-0.11-0.21-0.27-0.31-0.25
		c-2.81,0.34-2.81-2.19-3.82-3.86c-2.22,0.76-3.6-0.14-4.77-2.11c-0.37-0.64-1.89-0.85-2.87-0.82c-1.1,0.04-2.18,0.58-3.78,1.06
		c2.32,1.09,4.05,1.9,6.02,2.82c-1.88,1.98-1.57,2.99,0.95,3.32c0.55,0.07,1.94,0.46,1.23,1.88c-0.08,0.16,0.64,0.94,1.11,1.1
		c1.36,0.46,1.98,0.99,0.89,2.37c-0.87,1.11-0.37,1.58,0.92,1.69c1.31,0.12,2.6,0.42,3.51,0.57c2.46,3.39,4.44,6.62,4.68,10.8
		c-0.55-0.06-1.25,0.08-1.56-0.2c-1.45-1.35-3.94-1.2-4.82-3.42c-0.12-0.3-1.05-0.27-1.59-0.34c-1.68-0.24-0.92-4.03-4.06-2.29
		c-0.61-1.22-1.07-2.39-1.76-3.39c-0.3-0.44-1.27-0.38-1.64-0.8c-0.85-0.99-1.52-2.14-2.4-3.43c-2.08,0.45-2.55-1.14-2.93-3
		c-0.09-0.45-0.99-1.18-1.22-1.08c-2.06,0.87-2.74-0.83-3-1.98c-0.56-2.51-2-2.52-3.9-1.96c-0.96,0.28-1.92,0.6-3.31,1.04
		c2.27,1.41,4.12,2.56,6.36,3.96c-1.24,0.76-1.86,1.14-2.66,1.63c1.45,0.97,2.8,1.87,4.15,2.77c-0.5,0.82-0.81,1.33-1.15,1.88
		c1.37,0.61,2.61,1.16,4.41,1.95c-1.2,0.43-2.06,0.73-2.92,1.03c0.26,0.33,0.52,0.66,0.78,0.99c1.82,0.8,3.64,1.61,5.73,2.53
		c-0.71,0.53-1.17,0.87-1.63,1.21c2.3,3.64,6.07,6.46,5.46,11.79c-2.5-1.23-4.69-2.31-6.88-3.39c-0.12,0.15-0.23,0.29-0.35,0.44
		c-0.26-0.71-0.61-1.4-0.76-2.12c-0.23-1.14-0.45-2.03-1.81-2.52c-0.69-0.25-1.02-1.54-1.44-2.4c-0.23-0.47-0.29-1.02-0.5-1.81
		c-0.79,0.55-1.33,0.93-2.23,1.55c-0.39-1.55-0.74-2.97-1.15-4.59c-0.69,0.32-1.34,0.61-2.35,1.08c-0.24-1.74-0.47-3.39-0.73-5.22
		c-0.67,0.33-1.19,0.58-2,0.97c-0.19-1.42-0.23-2.67-0.56-3.84c-0.13-0.47-0.98-1.15-1.36-1.07c-2.07,0.44-3.44-0.52-3.3-2.81
		c0.11-1.75-0.65-1.93-2.01-1.62c-1.73,0.39-3.45,0.79-5.11,1.64c2.06,0.97,4.12,1.93,6.43,3.02c-2.57,3.08,1.13,3.26,1.56,5.08
		c-0.31,0.32-0.71,0.74-1.18,1.24c1.2,1.1,2.32,2.11,3.56,3.25c-0.69,0.53-1.26,0.96-2.03,1.56c1.9,1.3,3.65,2.5,4.82,3.3
		c0.26,1.28,0.27,2.02,0.56,2.61c1.65,3.39,3.79,6.62,2.77,11.02c-1.7-1.91-2.98-4.48-4.98-5.3c-2.51-1.03-1.95-3.45-3.64-5.1
		c-0.31,1.12-0.55,1.97-0.78,2.82c-0.21,0.01-0.42,0.03-0.63,0.04c-0.16-1.29-0.48-2.59-0.44-3.88c0.06-1.59-0.05-2.65-2.34-1.4
		c0.11-1.47,0.15-2.61,0.29-3.74c0.16-1.32-0.75-1.8-2.69-1.34c0-1.21,0-2.43,0-3.94c-1.03,0.43-1.65,0.69-2.55,1.07
		c-0.16-1.33-0.29-2.53-0.46-3.72c-0.15-1.08-0.69-1.4-1.77-1.01c-2.39,0.85-3.43-0.01-3.21-2.54c0.03-0.34,0-0.69,0-1.54
		c-2.77,0.57-5.39,1.11-8.01,1.65c0,0.28,0.01,0.56,0.01,0.84c1.15,0.23,2.4,0.27,3.43,0.76c1.02,0.49,1.83,1.44,2.73,2.2
		c-0.62,0.55-1.26,1.08-1.86,1.65c-0.18,0.17-0.28,0.43-0.39,0.6c1.62,0.8,3.16,1.57,4.88,2.42c-0.56,0.87-0.88,1.36-1.26,1.95
		c1.2,0.82,2.33,1.59,3.63,2.47c-0.41,0.32-0.62,0.47-0.8,0.64c-0.53,0.49-1.04,0.98-1.57,1.47c0.58,0.39,1.14,0.83,1.75,1.17
		c0.96,0.55,1.94,1.04,3.32,1.77c-1.05,0.33-1.73,0.54-2.49,0.78c-0.46,1.46-0.08,2.27,1.5,3.03c1.27,0.61,2.37,1.93,3.13,3.19
		c1.29,2.14,2.25,4.48,3.58,7.23c-2.49-1.13-5.05-1.49-6-2.92c-1.18-1.77-4.46-1.67-4.08-4.67c0.01-0.11-1.19-0.37-2.17-0.66
		c-0.15-0.5-0.53-1.4-0.67-2.34c-0.39-2.51-0.5-2.57-2.98-0.76c-0.19-1.92-0.36-3.64-0.57-5.7c-1.02,0.54-1.94,1.03-2.96,1.57
		c-0.07-1.02-0.38-1.97-0.15-2.78c0.44-1.61,0.72-2.75-1.68-2.36c-0.15,0.02-0.77-2.1-0.95-3.26c-0.12-0.76,0.17-1.59,0.28-2.44
		c-3.77,0.31-4.32-0.3-3.68-4.24c-2.83,0.65-5.5,1.26-8.61,1.97c2.63,1.4,4.69,2.49,7.1,3.78c-1.21,0.96-1.95,1.55-3.06,2.43
		c1.58,1.01,2.99,1.91,4.4,2.81c-0.52,0.42-1.08,0.87-1.78,1.42c1.65,0.82,3.08,1.52,4.5,2.23c-0.01,0.24-0.02,0.48-0.02,0.73
		c-0.7,0.26-1.43,0.46-2.09,0.8c-0.5,0.26-0.9,0.71-1.35,1.08c0.36,0.44,0.64,1.06,1.11,1.28c1.43,0.68,2.94,1.21,4.73,1.92
		c-0.88,0.59-1.47,0.98-2.29,1.53c1.27,1.09,2.41,2.06,3.72,3.19c-0.96,0.28-1.69,0.5-2.82,0.83c3.98,2.64,2.7,6.76,3.86,10.27
		c-3.74-0.78-4.61-3.9-6.01-6.75c-0.59,0.21-1.2,0.42-2.09,0.73c0-1.64,0-3.12,0-4.97c-1.02,0.65-1.68,1.06-2.73,1.73
		c0.32-2.14,0.57-3.86,0.89-6.03c-1.42,0.6-2.46,1.05-3.68,1.56c0-1.4,0-2.7,0-4.11c-1.72-0.28-2.11-1.21-1.26-2.74
		c0.19-0.34,0.21-0.83,0.19-1.24c-0.04-0.59-0.19-1.18-0.3-1.77c-0.56,0.17-1.13,0.3-1.67,0.51c-0.44,0.17-0.84,0.45-1.26,0.68
		c-2.31-2.26,2.22-4.28,0.04-6.52c-0.69,0.4-1.34,0.78-1.96,1.15c-1.59-1.53-1.59-1.53-0.29-5.34c-1.92,0.49-3.58,0.9-5.23,1.33
		c-1.02,0.27-2.08,0.46-3.03,0.9c-0.64,0.29-1.12,0.95-1.67,1.44c0.71,0.06,1.42,0.17,2.13,0.17c1.14,0,2.36-0.34,3.4-0.02
		c0.67,0.2,1.31,1.26,1.48,2.04c0.09,0.42-0.75,1.15-1.3,1.58c-0.52,0.4-1.2,0.59-2.11,1.01c1.56,1.07,2.82,1.94,4.21,2.88
		c-2.33,3.23,2.58,3.7,1.98,6.37c-0.67,0.16-1.45,0.35-2.96,0.72c1.98,1.56,3.55,2.81,5.27,4.17c-0.71,0.23-1.29,0.42-2.07,0.67
		c0.7,2.69,3.2,2.63,5.39,3.66c-0.93,0.51-1.58,0.88-2.17,1.2c1.14,3.98,3.97,7.5,2.44,12.36c-1.26-1.56-2.16-3.44-3.65-4.31
		c-1.7-1-1.54-2.89-2.8-3.97c-0.4-0.34-0.64-0.93-0.84-1.44c-0.66-1.71,0.31-4.06-2.09-5.12c-0.27-0.12-0.36-1.1-0.21-1.59
		c0.52-1.73-0.22-2.38-2.12-2.29c0-1.1,0.25-2.16-0.08-3c-0.25-0.64-1.24-0.98-2.18-1.66c0.11-1.08,0.27-2.65,0.47-4.61
		c-1.37,0.44-2.14,0.69-3.27,1.06c0.2-1.35,0.38-2.49,0.54-3.62c0.18-1.25,0.03-1.95-1.63-1.88c-0.91,0.03-1.85-0.96-2.87-1.54
		c0.64-0.94,1.01-1.48,1.61-2.36c-1.17-0.08-2.02-0.14-2.87-0.21c0.99-4.53-4.16-4.66-5.74-7.99c0.96,0.3,1.5,0.53,2.07,0.61
		c0.44,0.06,0.9-0.06,1.35-0.11c-0.05-0.47,0.07-1.1-0.19-1.37c-0.89-0.96-1.91-1.8-3.01-2.8c4.48-1.5-0.36-3.06,0.46-4.46
		c1.01,0,2.03,0,3.54,0c-1.08-1.88-1.9-3.31-2.75-4.82c0.51-0.2,0.94-0.37,1.63-0.64c-0.65-1.25-1.24-2.41-1.56-3.03
		c0.51-1.01,1.2-1.74,1.08-2.28c-0.33-1.51,0.76-2.04,1.47-2.94c1.1-1.38,2-2.92,3.01-4.37c0.1-0.14,0.35-0.18,0.92-0.46
		c0.23,2.21,0.64,4.24,0.59,6.25c-0.05,1.91-0.58,3.82-0.91,5.82c1.05,0,1.92,0,3.12,0c-0.86,1.32-1.57,2.39-2.41,3.67
		c0.79,0.12,1.49,0.22,2.79,0.42c-1.13,1.19-1.95,2.25-2.96,3.07c-1.23,0.99-1.53,1.78-0.02,2.58c-0.55,1.09-1.09,2.14-1.62,3.2
		c0.15,0.12,0.29,0.24,0.44,0.37c1.02-0.29,2.04-0.57,3.7-1.04c-1.52,1.59-2.6,2.72-3.84,4.02c3.08,0.46,3.04,0.45,2.58,2.98
		c-0.06,0.32,0.59,0.97,1.03,1.11c0.37,0.12,0.9-0.3,1.36-0.47c3.53-1.3,3.53-1.3,1.95-4.71c1.07,0.07,2.06,0.14,3.38,0.23
		c-0.27-0.77-0.36-1.31-0.63-1.74c-0.69-1.1-2.12-2-0.4-3.51c0.27-0.24-0.54-1.71-0.9-2.74c0.6-0.04,1.21-0.09,2.15-0.16
		c-0.55-1.35-1.01-2.49-1.52-3.77c0.6-0.03,1.14-0.06,1.85-0.1c-0.44-1.39-0.83-2.62-1.25-3.92c0.7-0.22,1.19-0.38,1.75-0.56
		c-0.26-1.28-0.5-2.44-0.74-3.6c0.2,0.02,0.39,0.03,0.59,0.05c0.19-0.72,0.33-1.45,0.58-2.14c0.42-1.13,0.91-2.24,1.37-3.35
		c0.3,0.02,0.6,0.05,0.89,0.07c0.65,1.74,1.3,3.48,1.95,5.22c0.16-0.09,0.32-0.18,0.47-0.27c-0.08,0.77-0.16,1.53-0.27,2.48
		c1.01-0.16,1.73-0.28,2.44-0.39c0.09,0.12,0.18,0.24,0.27,0.35c-0.71,0.78-1.51,1.5-2.11,2.36c-0.46,0.67-0.67,1.51-0.99,2.27
		c0.75-0.12,1.5-0.24,2.09-0.33c-1.19,1.33-2.52,2.81-3.84,4.3c0.13,0.17,0.26,0.34,0.38,0.51c0.88-0.06,1.76-0.12,2.64-0.18
		c0.12,0.19,0.23,0.38,0.35,0.57c-0.41,0.25-0.91,0.41-1.21,0.76c-0.59,0.68-1.06,1.45-1.58,2.19c0.77,0.06,1.53,0.12,2.45,0.19
		c-0.99,0.91-2.01,1.84-3.3,3.03c1.8,0.4,3.55,0.59,2.13,2.68c-0.05,0.07,0.08,0.38,0.1,0.37c1.43-0.14,2.89-0.2,4.29-0.51
		c0.35-0.08,0.88-1.19,0.72-1.45c-1.05-1.68-0.45-2.74,1.22-3.51c-0.51-1.2-1.2-2.25-1.38-3.39c-0.23-1.42-0.06-2.91-0.06-4.64
		c3.2-1.16-0.4-3.14-0.03-4.92c0.54,0,1.11,0,1.85,0c-0.51-1.58-0.96-3-1.45-4.52c0.82,0.07,1.43,0.13,2.28,0.2
		c-0.17-1.41-0.32-2.58-0.44-3.57c0.45-0.49,1.1-0.87,1.19-1.35c0.66-3.76,1.16-4.59,4.64-6.55c-0.18,2.28-0.41,4.28-0.43,6.29
		c0,0.52,0.68,1.05,1.17,1.49c0.56,1.04-2.02,2.26,0.38,3.22c-0.94,1.44-1.8,2.74-2.65,4.04c0.1,0.12,0.2,0.25,0.29,0.37
		c1.06-0.32,2.13-0.64,3.19-0.96c0.09,0.13,0.18,0.26,0.28,0.4c-0.78,0.73-1.6,1.43-2.33,2.22c-0.44,0.48-0.74,1.1-1.1,1.65
		c0.68,0.16,1.36,0.32,2.04,0.49c0.13,0.03,0.25,0.1,0.66,0.26c-0.97,1.19-1.88,2.32-2.92,3.6c0.76,0.41,1.28,0.69,1.8,0.96
		c0.22,0.27,0.44,0.53,0.65,0.8c-0.84,0.5-1.72,0.95-2.5,1.54c-0.27,0.2-0.51,0.91-0.39,1.05c0.27,0.3,0.83,0.59,1.19,0.52
		c2.46-0.52,4.9-1.13,7.53-1.75c-0.92-1.83-2.1-3.36-1.04-5.43c0.25-0.49-0.8-1.64-1.02-2.06c0.61-0.98,1.35-1.63,1.36-2.29
		c0.01-0.9-0.54-1.8-0.95-3c0.92,0.14,1.49,0.23,2.1,0.32c0.96-1.7-1.78-4.2,1.24-5.21c-0.1-1-0.19-1.9-0.24-2.42
		c2.14-2.7,4.07-5.15,6.09-7.7c0.38,1.45,0.59,2.42,0.89,3.36c0.7,2.2-0.24,4.07-1.06,6c-0.26,0.62-0.15,1.39-0.19,2.1
		c-0.01,0.11,0.2,0.3,0.16,0.34c-2.54,3.31,0.88,2.1,2.1,2.72c-0.13,1.29-3.26,1.77-0.69,4.07c-1.29,0.91-2.48,1.74-3.93,2.76
		c1.15,0.58,1.74,0.87,2.1,1.06c-0.14,1.29-0.71,2.67-0.25,3.38c0.45,0.68,1.96,0.66,3.36,1.04c-1.05,0.96-1.81,1.65-2.57,2.34
		c0.1,0.21,0.21,0.42,0.31,0.63c1.56-0.46,3.12-0.92,4.68-1.38c-0.77-1.55-1.35-2.72-2.15-4.33c1.5,0.22,2.31,0.35,3.65,0.55
		c-1.3-1.8-2.28-3.16-3.4-4.71c0.77-0.2,1.25-0.33,1.78-0.47c-0.16-1.73-3.48-3.41,0.12-4.92c-0.3-0.88-0.76-1.72-0.8-2.57
		c-0.03-0.62,0.53-1.25,0.81-1.89c0.2-0.44,0.53-0.9,0.53-1.35c-0.01-1.18-0.16-2.36-0.26-3.55c0.44,0.03,0.81,0.06,1.1,0.08
		c-0.58-5.01,2.09-8.11,6.17-11.18c0,3.8,0,7.07,0,10.58c0.12,0.02,0.71,0.14,1.51,0.3c-0.59,1.28-1.16,2.51-1.8,3.9
		c0.85,0.33,1.61,0.62,2.09,0.81c-0.87,1.7-1.77,3.35-2.57,5.05c-1.01,2.14-0.8,2.56,1.47,3.28c-0.53,1.06-1.05,2.11-1.7,3.42
		c0.87,0.18,1.64,0.34,2.73,0.57c-0.54,1.36-1.07,2.67-1.85,4.62c2.32-0.71,3.99-1.22,5.62-1.72c-0.67-1.99-1.22-3.62-1.76-5.24
		c0.13-0.13,0.26-0.25,0.39-0.38c0.95,0.47,1.89,0.94,3.46,1.72c-0.73-2.03-1.54-3.58-1.8-5.22c-0.25-1.59,0.07-3.27,0.15-5.08
		c0.33-0.1,0.91-0.26,1.44-0.41c-0.05-7.44,2.92-12.85,10.35-16.06c-0.82,3.98-1.58,7.65-2.42,11.72c-0.12-0.1,0.24,0.2,0.82,0.71
		c-0.72,0.96-1.49,1.99-2.24,2.99c1.65,2.79,1.39,5.47-1.18,8.15c1.34,0.44,2.42,0.8,3.76,1.24c-0.59,1.02-1.1,1.89-1.62,2.79
		c2.99,0.25,3.43-0.27,3.02-3.11c-0.17-1.19-0.94-2.71,1.06-3.34c0.19-0.06,0.24-0.99,0.13-1.47c-0.14-0.59-0.52-1.11-0.88-1.82
		c0.65-0.2,1.14-0.35,1.61-0.5c0.5-1.5-2.41-3.23,0.44-4.49c-0.46-1-0.91-1.94-1.33-2.89c-0.68-1.57,0.25-1.76,1.61-1.59
		c-0.13-1.03-0.44-1.99-0.31-2.89c0.11-0.74,0.73-1.41,1.28-2.39c-0.95-3.52,1.04-6.39,3.97-9.19c0.35,2.72,0.49,5.49,1.13,8.13
		c0.32,1.33,0.76,2.38,0.03,3.7c-0.15,0.27,0.75,1.11,1.42,2.06c-0.08,0.14-0.43,0.71-0.72,1.31c-0.55,1.13-0.94,2.18,0.52,3.09
		c0.36,0.22,0.45,1.34,0.26,1.9c-0.65,1.9-1.47,3.74-2.33,5.85c3.58-0.03,2.21,2.16,1.91,3.8c2.42-0.36,2.81-0.93,2.51-3.1
		c-0.21-1.48-0.47-3.08,2.02-3.08c-0.4-1.46-0.76-2.78-1.05-3.85c2.58-1.45-0.4-3.18,0.5-4.64c0.37,0.08,0.86,0.19,1.61,0.35
		c-0.24-1.5-0.44-2.77-0.68-4.35c0.68,0.42,1.08,0.68,2.04,1.28c-0.29-1.2-0.55-1.87-0.59-2.56c-0.05-0.96-0.88-2.2,1.04-2.59
		c0.43-0.09,0.56-1.67,0.86-2.71c0.98-0.72,2.14-1.57,3.8-2.79c0.06,1.22,0.09,2.07,0.13,2.92c0.1,2.03,0.22,4.06,0.29,6.09
		c0.02,0.66-0.05,1.33-0.12,2c-0.22,1.82-0.49,3.64-0.69,5.46c-0.07,0.69,0.27,1.56-0.04,2.07c-0.84,1.38-0.65,2.36,0.74,3.04
		c-0.41,1-0.75,1.83-1.15,2.81c2.65-0.28,3.79-1.37,3.82-3.38c0.02-1.45-0.3-3.02,1.59-3.68c0.17-0.06,0.28-0.47,0.3-0.73
		c0.15-2.31,0.27-4.61,0.84-6.53c0.36-0.36,0.9-0.66,1.05-1.1c0.42-1.24,0.72-2.53,1-3.81c0.14-0.63,0.12-1.3,0.19-2.25
		c0.86,0.75,1.49,1.31,2.12,1.86c0.19-0.01,0.38-0.02,0.57-0.03c-0.9-3.03-2.1-6.16,2.17-7.73c0,2.76-0.06,5.44,0.02,8.12
		c0.06,1.8,0.21,3.61,0.53,5.38c0.26,1.49-0.7,4.82-1.77,5.67c0,1.33,0,2.51,0,3.7c2.44-0.17,3.57-1.38,3.76-3.54
		c0.1-1.15,0.62-2.27,0.86-3.07c0.11-2.39,0.14-4.52,0.31-6.63c0.23-2.9,0.38-5.83,0.93-8.67c0.23-1.21,1.32-2.31,2.18-3.32
		c0.72-0.84,1.67-1.49,2.62-2.32c-0.4,2.73-1.17,5.43,0.84,7.8c0.11,0.13,0.14,0.5,0.04,0.6c-1.51,1.64-0.72,3.76-1.16,5.63
		c-0.36,1.54-0.38,3.26-0.08,4.82c0.22,1.18,1.17,2.22,1.83,3.38c1.84-0.54,2.5-1.64,2.36-3.65c-0.07-1.03,0.31-2.09,0.55-3.5
		c-1.6-2.73-0.22-5.88,0.42-8.95c0.69-3.32,2.03-6.42,5.32-8.76c0.26,2.29,0.55,4.44,0.73,6.59c0.04,0.48-0.18,1.13-0.51,1.48
		c-0.91,0.94-1.71,1.78-0.32,2.96c0.12,0.1,0.02,0.51-0.05,0.76c-0.05,0.19-0.24,0.35-0.33,0.54c-0.23,0.52,0.95,3.97,1.32,4.42
		c0.43,0.52,0.68,1.2,1.06,1.91c1.64-0.78,1.41-2.08,1.22-3.53c-0.58-4.49-1.04-9.02,1.01-13.29c0.51-1.06,1.56-1.86,2.36-2.78
		c0.21,0.07,0.41,0.15,0.62,0.22c0,4.21,0,8.42,0,12.52c3.01,0.83,3.2,0.71,3.07-1.98c-0.18-3.64-0.55-7.28-0.54-10.91
		c0-1.1,0.95-2.22,1.57-3.28c0.33-0.57,0.88-1.01,1.43-1.61c0.7,1.62,1.38,3.27,2.15,4.89c0.1,0.2,0.62,0.2,0.94,0.31
		c-0.91,1.3-1.04,5.79-0.16,6.83c0.2,0.23,0.73,0.48,0.89,0.38c0.31-0.19,0.69-0.68,0.63-0.97
		C161.51,313.96,160.99,311.89,160.51,309.82z M46.43,363.29c0.09,0.22,0.17,0.44,0.26,0.66c0.84-0.18,1.72-0.25,2.49-0.58
		c0.3-0.13,0.36-0.82,0.54-1.25c-0.47-0.1-1.04-0.42-1.37-0.26C47.64,362.2,47.06,362.8,46.43,363.29z"/>
	<path d="M160.63,201.82c-2.69,1.89-2.69,1.89-5.81-2.14c-3.45,2.21-3.57-1.5-4.93-2.91c-0.18,0.02-0.29,0-0.32,0.04
		c-1.62,2.22-2.9,2.11-4.42-0.47c-0.42-0.72-0.69-1.53-0.91-2.03c-1.34-0.2-2.48-0.45-3.63-0.51c-0.38-0.02-0.84,0.36-1.18,0.66
		c-1.05,0.88-1.54,0.45-1.95-0.77c1.34-0.3,2.58-0.51,3.76-0.9c0.34-0.11,0.51-0.73,0.76-1.12c-1.45-0.22-2.91-0.62-4.35-0.59
		c-0.68,0.01-1.3,0.94-2.03,1.3c-1.09,0.54-1.81,1.02-0.93,2.4c0.25,0.4-0.25,1.27-0.51,2.36c-0.52-0.83-0.77-1.23-0.77-1.24
		c-1.36,0.58-2.47,0.93-3.42,1.53c-0.39,0.24-0.7,1.11-0.57,1.55c0.14,0.49,0.83,0.82,1.08,1.05c0.15,0.75,0.07,1.83,0.49,2.09
		c1.36,0.85,1.33-0.52,1.65-1.3c1.2-2.89,4.29-4.26,8.53-3.61c-0.16,1.31-0.33,2.64-0.54,4.35c2.38-1.61,4.48-1.08,6.49,0.24
		c-0.22,0.75-0.43,1.51-0.67,2.35c1.53-0.1,2.86-0.48,4.03-0.19c1.08,0.27,1.99,1.27,2.72,2.13c1.75,0.45,3.5,0.9,5.37,1.38
		c-0.42,1.06-0.64,1.62-0.74,1.87c2.06,0.46,4.03,0.91,6.18,1.39c-0.59,1.22-0.9,1.86-1.31,2.71c2.67,0.03,5.65-1.29,6.79,2.45
		c0.94,0.38,2.04,0.82,3.3,1.33c-0.36,0.61-0.65,1.09-1.01,1.69c1.63,0.71,5.1-1.11,3.72,2.86c1.34,0.39,2.52,0.74,3.77,1.1
		c-0.36,0.67-0.61,1.14-0.86,1.6c3.07,2,6.04,3.94,9.01,5.87c-0.14,0.29-0.27,0.58-0.41,0.86c-3.13-1.12-6.26-2.24-9.39-3.36
		c0.03-0.17,0.06-0.34,0.09-0.52c-0.53,0.31-1.05,0.62-1.82,1.07c-0.45-0.63-0.94-1.32-1.54-2.16c-0.63,0.67-1.03,1.09-1.76,1.86
		c-0.8-1.35-1.52-2.58-2.42-4.1c-0.38,1.04-0.66,1.78-1.18,3.2c-1.23-1.52-2.21-2.73-3.29-4.06c-0.51,0.89-1.04,1.81-1.89,3.29
		c-1.21-1.75-2.23-3.21-3.35-4.83c-0.47,0.63-0.94,1.26-1.77,2.37c-1.2-1.75-2.29-3.33-3.48-5.07c-0.39,0.56-0.86,1.25-1.34,1.94
		c-2.58-0.59-3.5-2.51-3.77-5.6c-0.98,1.39-1.56,2.2-2.68,3.79c-1.17-1.04-2.22-1.96-3.26-2.89c0.22-0.31,0.44-0.61,0.65-0.92
		c-0.5,0.42-1,0.85-1.93,1.64c-1.34-1.61-2.67-3.21-4.06-4.88c-2.88,0.83-4.16,0.11-5.02-3.07c-0.24-0.88-0.24-1.83-0.54-2.68
		c-0.2-0.56-0.76-0.98-1.15-1.47c-0.17,0.57-0.37,1.14-0.49,1.72c-0.04,0.18,0.2,0.41,0.17,0.59c-0.08,0.58-0.13,1.6-0.37,1.65
		c-0.66,0.15-1.66,0.15-2.08-0.25c-1.32-1.25-2.43-2.71-3.92-4.43c-0.97,0.56-2.26,1.3-3.79,2.19c-0.13-0.11-0.66-0.54-1.48-1.21
		c-0.1,0.68-0.22,1.08-0.2,1.48c0.04,0.87,0.29,1.75,0.17,2.6c-0.07,0.49-0.6,1.08-1.07,1.27c-0.3,0.12-0.9-0.36-1.31-0.65
		c-0.21-0.15-0.28-0.47-0.45-0.69c-1.98-2.62-1.98-2.62,0.02-5.09c-0.4-0.26-0.81-0.47-1.16-0.76c-0.79-0.66-1.72-1.24-2.28-2.06
		c-0.67-0.98-0.85-2.3-1.54-3.26c-0.68-0.94-1.72-1.62-2.67-2.47c0.37-0.58,0.67-1.05,0.87-1.37c-1.62-1.12-3.12-2.16-4.66-3.24
		c0.7-0.8,1.13-1.29,1.44-1.64c-1.62-1.08-3.11-2.08-4.87-3.25c1.17-0.83,1.87-1.32,2.77-1.97c-2.18-0.93-4.09-1.75-6-2.56
		c0.01-0.22,0.03-0.44,0.04-0.66c0.98-0.53,1.96-1.06,3.32-1.79c-2.08-0.84-3.91-1.57-6.17-2.48c1.33-1.09,2.15-1.75,2.92-2.39
		c-1.85-1.06-3.51-2.01-5.66-3.24c1.38-0.6,2.07-0.9,3.22-1.39c-1.66-1.06-3.03-1.93-4.58-2.91c2.8-2.06,2.8-2.06,0.68-4.57
		c0.53-0.49,1.06-1,1.15-1.08c-0.15-2.13-0.68-3.86-0.28-5.34c0.53-1.95-0.02-3.46-0.65-5.15c-0.33-0.88-0.28-1.89-0.41-2.84
		c0.21-0.08,0.42-0.16,0.63-0.24c1.83,4.06,3.65,8.13,5.54,12.34c0.06-0.03,0.39-0.21,0.95-0.5c0.22,0.83,0.33,1.66,0.66,2.39
		c0.31,0.67-0.19,2.11,1.54,1.76c0.23-0.05,0.88,1.58,1.2,2.48c0.17,0.48,0.03,1.07,0.03,1.86c0.66-0.31,1.12-0.53,1.9-0.91
		c0.55,1.64,1.08,3.24,1.67,5c0.48-0.18,1.15-0.43,2.31-0.87c0.51,1.98,0.99,3.85,1.45,5.68c2.77-0.94,3.52,0.32,2.97,5.71
		c1.57-0.82,3.28-1.31,3.66,0.96c0.24,1.44-0.22,3-0.4,4.75c1.02-0.43,2.06-0.87,3.58-1.51c0.4,1.78,0.79,3.52,1.26,5.56
		c0.57-0.08,1.43-0.19,2.24-0.3c1.41,1.97,1.06,3.91-0.57,6.06c2.09-0.25,3.72-0.37,5.31-0.68c0.25-0.05,0.6-0.99,0.47-1.37
		c-0.29-0.83-0.85-1.57-1.37-2.46c0.56-0.46,1.11-0.93,1.69-1.41c-1.76-1.38-3.44-2.7-5.31-4.16c1.12-0.64,1.68-0.96,2.39-1.37
		c-2.03-1.23-3.86-2.33-6.02-3.64c1.19-0.59,2.03-1.01,3.33-1.66c-1.9-0.86-3.35-1.51-5.14-2.33c1.04-0.66,1.65-1.05,2.6-1.65
		c-2.18-1-4.09-1.88-6.54-3.01c1.45-0.73,2.25-1.13,3.44-1.74c-2.26-1-4.16-1.84-6.06-2.68c-0.06-0.24-0.12-0.48-0.18-0.71
		c0.64-0.31,1.27-0.61,1.91-0.92c-0.05-0.2-0.1-0.39-0.15-0.59c-1.83-0.71-3.67-1.42-5.94-2.31c1.07-0.99,1.83-1.69,2.76-2.56
		c-1.98-0.87-3.79-1.67-5.9-2.59c1.09-0.68,1.72-1.08,2.64-1.65c-1.5-1.12-2.81-2.11-4.02-3.01c0.41-1.27,2.96-0.59,1.68-2.48
		c-0.56-0.83-1.52-1.38-2.36-2.11c0.76-0.51,1.36-0.9,2.09-1.39c-0.83-1.02-1.53-1.88-2.36-2.9c1.69-0.52,1.09-1.53,0.98-2.78
		c-0.32-3.54-0.2-7.11-0.22-10.67c0-0.21,0.29-0.42,0.78-1.08c1.22,4.9,2.34,9.35,3.48,13.93c0.11-0.04,0.44-0.18,0.78-0.31
		c0.01,2.75,3.78,4.44,2.31,7.83c0.37-0.29,0.74-0.58,1.23-0.97c1.68,2.61,3.34,5.21,5.17,8.05c2.12,0.05,2.64,0.65,3.46,4.61
		c2.92-0.83,4.32,1.77,4.35,4.84c2.89-0.4,3.06-0.16,3.92,5.76c3.77-0.96,4.16-0.47,3.86,5.12c1.11-0.26,2.16-0.51,3.16-0.75
		c2.17,2.63,0.4,4.58-1.34,6.54c2.2-0.51,4.07-0.95,6.32-1.48c0.08,1.76,0.08,2.97,0.23,4.17c0.05,0.37,0.5,1,0.73,0.99
		c0.53-0.03,1.18-0.26,1.52-0.64c0.93-1.03,1.55-2.44,2.64-3.22c1.05-0.75,2.5-1.08,3.82-1.3c2.11-0.36,1.17,2.08,2.29,2.72
		c4.71-0.46,5.36-0.15,5.18,2.73c0.95-0.26,1.84-0.69,2.74-0.7c0.86-0.01,1.72,0.41,2.67,0.66c-0.09,0.82-0.15,1.49-0.2,1.9
		c1.79-0.08,3.56-0.17,5.44-0.25c-0.12,1.24-0.2,2.01-0.28,2.87c4.95-1.11,5.98-0.81,6.13,1.07c1.78,0.6,3.34,1.12,4.88,1.66
		c0.46,0.16,0.92,0.6,1.34,0.55c1.53-0.18,2.16,0.41,1.69,2.43c2.87-1.8,4.11,0.74,5.96,1.52c2.49,1.05,4.91,2.26,6.96,3.22
		c-1.17,0-2.94-0.04-4.71,0.02c-0.87,0.03-1.75,0.41-2.6,0.33c-0.7-0.07-1.35-0.6-2.49-1.16c-0.25,0.8-0.56,1.77-0.99,3.17
		c-0.53-0.94-0.84-1.67-1.31-2.28c-0.42-0.55-0.99-1.29-1.54-1.34c-0.42-0.04-0.93,0.89-1.38,1.4c-0.29,0.34-0.55,0.71-0.82,1.07
		c-0.37-0.29-0.81-0.52-1.1-0.87c-0.37-0.46-0.62-1.01-0.92-1.53c-0.2,0.01-0.4,0.01-0.61,0.02c-0.26,0.98-0.52,1.96-0.79,2.94
		c-3.14,0.62-2.67-2.64-4.42-4.28c-0.43,1.45-0.76,2.56-1.11,3.74c-2.6,0.01-2.78-2.17-3.69-4.3c-0.5,1.21-0.83,2.02-1.45,3.52
		C162.97,204.3,161.81,203.08,160.63,201.82z"/>
	<path d="M155.14,173.87c0.5-0.1,1.05-0.12,1.5-0.33c0.63-0.29,1.14-0.84,1.78-1.08c2.37-0.9,3.6,0.14,3.17,2.61
		c-0.04,0.25-0.01,0.51-0.01,0.8c5.83-1.52,6.03-1.48,6.39,1.22c0.68-0.08,1.36-0.24,2.04-0.23c0.61,0.01,1.22,0.22,1.98,0.37
		c-0.1,0.58-0.22,1.04-0.23,1.5c-0.01,0.38,0.11,0.76,0.11,0.78c2.04,0,3.89,0,5.91,0c-0.58,1.22-0.98,2.06-1.39,2.92
		c1.76-0.33,3.25-0.66,4.75-0.86c0.44-0.06,1.28,0.16,1.35,0.41c0.88,3.17,4.11,1.22,5.77,2.85c-0.15,0.3-0.34,0.7-0.58,1.2
		c1.53,0.23,2.95,0.45,4.82,0.74c-0.85,0.9-1.27,1.33-2.03,2.13c2.06,0,3.79,0,5.9,0c-1.4,2.23,0.25,2.11,1.6,2.52
		c-2.35,0.81-4.28,1.49-6.42-0.03c-1.56-1.1-2.45-0.37-2.75,1.73c-0.91-0.81-1.93-1.72-2.94-2.62c-0.37,1.14-0.74,2.27-1.3,3.96
		c-1.05-1.62-2.01-3.09-3.1-4.77c-0.61,0.88-1.22,1.74-1.84,2.63c-2.67-0.19-1.9-3.14-3.74-4.5c-0.45,0.97-0.85,1.83-1.47,3.16
		c-1.18-0.98-2.29-1.9-3.43-2.85c-2.58,1.25-2.7,1.2-5.17-2.55c-0.49,0.96-0.94,1.85-1.4,2.74c-1.12-0.42-1.12-0.42-3.54-4.66
		c-0.38,1.25-0.7,2.3-1.07,3.51c-2.26-1.14-3.75-2.36-4.26-4.7c-0.24-1.11-1.23-2.09-1.99-3.04c-0.17-0.22-0.79-0.08-1.03-0.1
		c0.46,1.78,0.88,3.37,1.3,4.97c-0.33,0.21-0.67,0.42-1,0.63c-1.25-1.16-2.49-2.33-3.74-3.49c-0.66-0.61-1.31-1.25-2.05-1.73
		c-0.2-0.13-0.87,0.15-1.08,0.42c-0.25,0.32-0.47,1.05-0.29,1.26c1.31,1.55,0,2.2-0.88,3.06c0.09-1.09,0.18-2.15,0.28-3.22
		c-0.31-0.08-0.62-0.16-0.93-0.24c-0.28,0.73-0.55,1.47-0.86,2.2c-0.22,0.51-0.49,1-0.74,1.49c-0.46-0.31-0.94-0.58-1.37-0.93
		c-0.43-0.35-0.87-0.71-1.19-1.16c-0.32-0.46-0.79-1.14-0.65-1.52c0.15-0.4,0.93-0.58,1.45-0.84c0.11-0.05,0.28,0.01,0.42,0
		c0.74-0.05,1.48-0.11,2.22-0.17c-0.76-0.44-1.47-1.04-2.29-1.28c-2.19-0.63-4.31-1.28-5.72-3.81c1.27-0.32,2.41-0.62,4.22-1.08
		c-1.15-0.64-1.84-1.06-2.57-1.42c-1.51-0.75-3.45-1.15-2.58-3.64c0.07-0.2-0.69-0.72-1.1-1.03c-0.88-0.64-1.78-1.24-2.68-1.86
		c0.04-0.2,0.08-0.4,0.12-0.6c1.31-0.29,2.62-0.57,4.25-0.93c-2.18-1.29-4.2-2.49-6.22-3.69c0.1-0.2,0.2-0.4,0.3-0.6
		c0.93-0.22,1.85-0.43,3.3-0.77c-0.75-0.55-1.15-0.94-1.62-1.17c-0.43-0.21-1.01-0.15-1.41-0.39c-0.98-0.61-1.89-1.32-2.82-1.99
		c0.89-0.49,1.78-0.97,2.65-1.48c0.17-0.1,0.27-0.31,0.48-0.57c-1.92-1.1-3.82-2.19-5.65-3.24c0.25-0.65,0.26-0.84,0.35-0.88
		c0.82-0.43,1.65-0.84,2.48-1.26c-0.85-0.45-1.74-0.85-2.55-1.37c-0.75-0.49-1.42-1.11-2.31-1.82c1.2-0.48,2.19-0.88,3.45-1.39
		c-1.92-1.25-3.58-2.34-5.59-3.65c1.3-0.59,2.04-0.93,3.15-1.43c-1.33-1.16-2.49-2.17-3.86-3.36c1.05-0.48,1.66-0.76,2.57-1.17
		c-0.75-1-1.4-1.86-2.04-2.72c0.14-0.05,0.28-0.1,0.42-0.15c-0.32-1.01-0.69-2.01-0.96-3.03c-0.6-2.21-1.09-4.46-1.77-6.65
		c-0.38-1.22-1.53-2.32,0.39-3.98c2.09,4.18,4.1,8.22,6.19,12.41c1.19-0.19,1.84,0.92,1.78,4.19c0.59-0.21,1.13-0.4,2.03-0.72
		c0.23,1.61,0.44,3.13,0.68,4.76c0.44-0.18,1.05-0.42,1.93-0.76c0.42,1.49,0.82,2.92,1.24,4.41c1.48-0.14,2.24,1.18,2.5,4.99
		c0.73-0.12,1.44-0.25,2.73-0.47c0.18,1.86,0.36,3.64,0.55,5.66c0.44-0.12,1.18-0.32,1.93-0.52c1.5,1.67,1.75,3.51,0.29,5.98
		c1.42-0.52,2.28-0.84,3.15-1.16c1.51,2.48-0.11,4.81-0.95,7.6c1.51-0.64,2.55-1.08,3.87-1.64c0,1.23,0.12,2.31-0.03,3.35
		c-0.15,1.01-0.59,1.97-1.01,3.27c1.74-0.57,2.96-0.98,4.23-1.4c0.94,2.79-1.19,4.22-2.42,6.45c2.64-0.64,4.99-1.95,7.07,0.19
		c-0.28,0.48-0.66,0.93-0.82,1.45c-0.14,0.44-0.05,0.96-0.06,1.45c0.47-0.16,1.17-0.18,1.36-0.51c0.51-0.87,0.8-1.87,1.17-2.81
		L155.14,173.87z"/>
	<path d="M29.43,408.73c-2.04-1.14-4.08-2.28-7.02-3.93c-0.78-1.57-1.87-4.24-3.37-6.64c-1.41-2.25-3.28-4.21-5.16-6.57
		c0.01-2.32-0.43-2.95-2.69-3.29c0-0.76,0.19-1.59-0.06-2.26c-0.24-0.65-0.85-1.45-1.45-1.6c-1.05-0.27-1.41-0.45-1.41-1.74
		c0-1.85-0.47-3.75-1.04-5.53c-0.18-0.56-1.34-0.8-2.06-1.2c1.58-0.56,3.37-1.19,5.16-1.83c0.09,0.18,0.18,0.37,0.26,0.55
		c-0.65,0.89-3.19,0.68-1.8,2.87c1.5-0.44,2.93-1.09,4.41-1.2c1-0.08,2.05,0.6,3.08,0.94c-0.55,0.71-0.97,1.62-1.67,2.09
		c-0.83,0.56-1.92,0.75-3.03,1.67c1.89,0.56,3.78,1.11,5.46,1.61c-0.75,0.7-1.74,1.5-2.54,2.48c-0.12,0.15,0.69,1.06,1.06,1.59
		c2.34-1.15,2.6-1.09,4.18,0.78c-0.68,0.54-1.35,1.08-2.29,1.83c2.14,0.71,3.98,1.31,6.4,2.11c-1.5,0.91-2.4,1.45-3.29,2
		c-0.02,0.19-0.05,0.38-0.07,0.58c1.78,0.53,3.55,1.07,5.86,1.76c-1.09,0.42-1.84,0.62-2.49,0.98c-0.41,0.23-0.68,0.69-1.02,1.05
		c0.41,0.16,0.82,0.48,1.22,0.45c2.26-0.16,2.25-0.19,1.65,2.09c-0.07,0.25-0.07,0.61,0.07,0.8c0.9,1.29,1.95,2.48,2.75,3.82
		c0.62,1.04,0.96,2.26,1.43,3.39C29.77,408.5,29.6,408.62,29.43,408.73z"/>
	<path d="M195.59,291.09c2.23-2.11-0.33-6.44,3.97-7.87c-0.47,1.9-0.89,3.6-1.31,5.29c0.16,0.06,0.31,0.12,0.47,0.17
		c-0.37,0.3-0.83,0.54-1.1,0.92c-0.29,0.4-0.4,0.93-0.58,1.41c0.48,0.06,0.96,0.14,1.45,0.18c0.77,0.07,1.54,0.12,2.31,0.18
		c-0.04,0.32-0.08,0.64-0.12,0.97c-1.65-0.21-3.31-0.42-4.96-0.63C195.66,291.5,195.63,291.29,195.59,291.09z"/>
	<path d="M201.84,287.52c1.19,0,2.21,0,3.23,0c0.01,0.17,0.01,0.35,0.02,0.52c-1.21,0-2.42,0.05-3.62-0.04
		c-0.25-0.02-0.71-0.73-0.63-0.88c1.02-1.93-0.43-4.75,2.81-6.28C203,283.24,202.44,285.32,201.84,287.52z"/>
	<path d="M278.11,1.7c0.7,1.94,1.4,3.88,2.15,5.96c0.63-0.21,1.36-0.45,2.1-0.69c0.06,0.18,0.11,0.36,0.17,0.53
		c-1.03,0.31-2.05,0.63-2.96,0.91c-0.74-2.45-1.36-4.54-1.98-6.62C277.76,1.77,277.94,1.73,278.11,1.7z"/>
	<path d="M207.17,282.15c-0.5,0.74-1.02,1.52-1.62,2.41c-0.2-0.03-0.71-0.1-0.92-0.13c0.59-1.66,1.2-3.34,1.97-5.49
		C206.85,280.33,207,281.17,207.17,282.15z"/>
	<path d="M220.84,172.16c-1.97-0.51-3.94-1.02-5.91-1.52c0.1-0.35,0.21-0.69,0.31-1.04c1.93,0.68,3.85,1.37,5.78,2.05
		C220.96,171.82,220.9,171.99,220.84,172.16z"/>
	<path d="M148.06,98.56c0.93,1.55,2.66,2.87,1.19,5.11C148.86,101.97,148.46,100.27,148.06,98.56z"/>
	<path d="M212.97,277.43c0.34-1.43,0.68-2.86,1.02-4.28c0.22,0.06,0.45,0.12,0.67,0.18c-0.31,1.43-0.61,2.85-0.92,4.28
		C213.49,277.55,213.23,277.49,212.97,277.43z"/>
	<path d="M151.39,344.82c1.33-0.8,2.6-1.37,3.66,0.9C153.57,345.36,152.48,345.09,151.39,344.82z"/>
</g>
</svg>
